<svg width="107" height="69" viewBox="0 0 107 69" fill="none" xmlns="http://www.w3.org/2000/svg">
<path d="M9.55865 0.266491L7.54022 0.27983C6.87334 0.302059 6.19312 0.337626 5.53068 0.457665C4.52955 0.615874 3.5803 1.00952 2.761 1.60621C1.94171 2.2029 1.27579 2.98559 0.818043 3.88989C0.506831 4.50342 0.311212 5.12584 0.195619 5.80162C0.0711342 6.45961 0.0311212 7.13538 0.0177835 7.80227L0 8.73146V60.1125C0 60.4208 0.00444588 60.7276 0.0133377 61.0328C0.0311212 61.6997 0.0711342 62.3799 0.191173 63.0424C0.306766 63.7063 0.517205 64.3421 0.822489 64.9497C1.43656 66.1559 2.41714 67.1365 3.6234 67.7506C4.23693 68.0618 4.85935 68.2618 5.53513 68.3819C6.19312 68.5019 6.86889 68.5419 7.53577 68.5597L8.46052 68.5731H98.2407L99.161 68.5597C99.8279 68.5419 100.508 68.5019 101.171 68.3819C101.833 68.2618 102.464 68.0662 103.073 67.755C104.284 67.1431 105.267 66.1601 105.879 64.9497C106.19 64.3361 106.39 63.7137 106.506 63.0379C106.626 62.3799 106.666 61.7042 106.683 61.0373C106.692 60.729 106.697 60.4208 106.697 60.1125L106.701 59.0189V8.72701C106.701 8.41876 106.695 8.112 106.683 7.80671C106.675 7.13334 106.616 6.46157 106.506 5.79717C106.29 4.4594 105.659 3.22348 104.701 2.26496C103.744 1.30644 102.508 0.67407 101.171 0.457665C100.506 0.34774 99.8344 0.288291 99.161 0.27983C98.4899 0.261559 97.8184 0.257111 97.147 0.266491H9.55865ZM9.55865 2.54278H98.2185C98.5089 2.54278 98.8009 2.54723 99.0943 2.55612C99.6056 2.57391 100.206 2.60058 100.762 2.69839C101.246 2.78731 101.651 2.92069 102.037 3.1163C102.817 3.51294 103.45 4.14645 103.847 4.92578C104.05 5.32888 104.191 5.76064 104.265 6.20619C104.363 6.75304 104.389 7.35323 104.403 7.86895C104.412 8.15645 104.416 8.4484 104.416 8.74479V60.1037C104.416 60.3912 104.412 60.6816 104.403 60.975C104.389 61.4863 104.363 62.0865 104.26 62.6423C104.163 63.2961 103.911 63.9171 103.524 64.4532C103.137 64.9893 102.627 65.4248 102.037 65.7233C101.637 65.9259 101.208 66.0668 100.766 66.1412C100.217 66.2231 99.6629 66.2706 99.1077 66.2834L98.2185 66.2968H8.47386C8.17746 66.2968 7.887 66.2923 7.60246 66.2834C7.0443 66.271 6.48747 66.2234 5.93526 66.1412C5.45065 66.0522 5.04608 65.9189 4.65484 65.7233C3.87153 65.3336 3.23749 64.698 2.84981 63.9138C2.64629 63.5107 2.50537 63.0789 2.4319 62.6334C2.3431 62.0849 2.29554 61.5306 2.28963 60.975L2.28074 60.0992V8.74035L2.28963 7.86451C2.30741 7.35768 2.33409 6.76193 2.4319 6.1973C2.52082 5.71715 2.65419 5.31257 2.84981 4.92133C3.2472 4.14366 3.88064 3.51178 4.65929 3.1163C5.061 2.91321 5.49123 2.7723 5.93526 2.69839C6.49099 2.60058 7.09119 2.56946 7.60246 2.55612L8.47386 2.54278H9.55865ZM30.4988 18.9926C29.165 19.0637 27.5289 19.8773 26.5864 21.0199C25.7372 21.998 24.9859 23.5985 25.1815 25.1012C26.6842 25.2346 28.1825 24.3498 29.1294 23.2428C30.0408 22.0958 30.6633 20.562 30.4988 18.997V18.9926ZM40.3108 20.8598V45.2811H44.0987V36.9361H49.3449C54.1375 36.9361 57.5031 33.6506 57.5031 28.8802C57.5031 24.1231 54.2042 20.8554 49.4649 20.8554L40.3108 20.8598ZM44.0987 24.0564H48.4646C51.7501 24.0564 53.6263 25.817 53.6263 28.898C53.6263 31.9745 51.7501 33.7529 48.4513 33.7529H44.0987V24.0564ZM30.0764 25.3902C28.0758 25.4346 26.3863 26.635 25.4082 26.635C24.3634 26.635 22.7718 25.4613 21.0468 25.4924C19.9251 25.5222 18.8306 25.8442 17.8715 26.4267C16.9124 27.0092 16.122 27.8319 15.5784 28.8135C13.2354 32.8504 14.9604 38.839 17.2411 42.1289C18.3482 43.7561 19.6819 45.5478 21.4381 45.4811C23.0964 45.4189 23.7499 44.4052 25.7639 44.4052C27.7823 44.4052 28.3692 45.4811 30.1209 45.45C31.9437 45.4189 33.0863 43.8228 34.1889 42.1912C35.4604 40.3372 35.9805 38.5456 36.0117 38.4522C35.9805 38.4166 32.4994 37.0829 32.4683 33.0771C32.4327 29.7249 35.2025 28.1288 35.3314 28.031C33.7665 25.7192 31.3301 25.4613 30.4854 25.3946L30.0764 25.3902ZM66.5504 27.1552C62.149 27.1552 59.4104 29.5249 59.2058 32.7392H62.6603C62.9804 31.1476 64.3008 30.1339 66.4171 30.1339C68.6489 30.1339 69.9871 31.3165 69.9871 33.295V34.6687L65.11 34.9533C60.8819 35.1934 58.4945 37.1051 58.4945 40.2172C58.4945 43.4182 60.9309 45.5834 64.4164 45.5834C66.755 45.5834 69.0046 44.3341 70.036 42.3512H70.1205V45.2811H73.6238V33.0104C73.6238 29.4404 70.8674 27.1552 66.5504 27.1552ZM75.1755 27.4753L81.6042 45.2989C81.6042 45.3122 81.2797 46.3659 81.2797 46.397C80.7239 48.2198 79.8125 48.9356 78.1186 48.9356C77.8119 48.9356 77.2028 48.9356 76.9316 48.8689V51.8299C77.1983 51.8788 78.1186 51.9143 78.421 51.9143C82.111 51.9143 83.8716 50.5272 85.3921 46.2103L92.0609 27.4753H88.2019L83.7027 41.9644H83.636L79.1323 27.4709L75.1755 27.4753ZM69.9871 37.2073V38.6122C69.9871 40.9286 67.9865 42.6891 65.4345 42.6891C63.4695 42.6891 62.1846 41.6755 62.1846 40.115C62.1846 38.5945 63.4205 37.6253 65.6035 37.4785L69.9871 37.2073Z" fill="black"/>
</svg>
