<svg width="85" height="52" viewBox="0 0 85 52" fill="none" xmlns="http://www.w3.org/2000/svg">
<path d="M23.783 19.6467C23.783 20.7084 23.8977 21.5691 24.0979 22.2003C24.352 22.9105 24.6579 23.6009 25.0132 24.2659C25.1563 24.4954 25.2134 24.7249 25.2134 24.9259C25.2134 25.2126 25.0419 25.4996 24.67 25.7866L22.8676 26.9915C22.6101 27.1638 22.3526 27.2498 22.1234 27.2498C21.8375 27.2498 21.5513 27.1063 21.2651 26.848C20.8793 26.4329 20.5344 25.9813 20.2353 25.4996C19.9491 25.0122 19.6629 24.4667 19.3483 23.807C17.1164 26.4463 14.3125 27.766 10.9366 27.7663C8.5335 27.7663 6.61639 27.0775 5.21433 25.7007C3.81262 24.3231 3.09741 22.487 3.09741 20.1919C3.09741 17.7534 3.95572 15.7737 5.70104 14.2818C7.44601 12.7899 9.76376 12.0439 12.7106 12.0439C13.6834 12.0439 14.6848 12.1299 15.7432 12.2734C16.802 12.4169 17.8892 12.6464 19.0337 12.9046V10.8103C19.0337 8.62959 18.5757 7.10925 17.6887 6.21978C16.7734 5.33032 15.2282 4.8998 13.0252 4.8998C12.0238 4.8998 10.994 5.01488 9.93522 5.27312C8.87642 5.53136 7.84665 5.84681 6.84523 6.24855C6.38755 6.44926 6.04429 6.56399 5.84381 6.62153C5.64332 6.67907 5.50055 6.7075 5.38613 6.7075C4.9855 6.7075 4.78535 6.42049 4.78535 5.81804V4.41209C4.78535 3.95314 4.84272 3.60893 4.98549 3.40823C5.1286 3.20718 5.38613 3.00648 5.78677 2.80577C6.78807 2.28906 7.98964 1.85866 9.39147 1.51456C10.7939 1.14158 12.2816 0.969647 13.8552 0.969647C17.2601 0.969647 19.7493 1.74404 21.3515 3.29349C22.925 4.8426 23.7263 7.19522 23.7263 10.3513V19.6467H23.783ZM12.1669 24.0077C13.1113 24.0077 14.084 23.8358 15.1138 23.4912C16.1439 23.147 17.0596 22.5158 17.8318 21.6551C18.2898 21.1102 18.6331 20.5077 18.8045 19.819C18.9763 19.1305 19.0908 18.2983 19.0908 17.3228V16.1179C18.2231 15.9063 17.3443 15.7435 16.4585 15.6302C15.5664 15.5167 14.6683 15.4592 13.7691 15.458C11.852 15.458 10.4503 15.8309 9.50623 16.6057C8.56219 17.3804 8.10417 18.4706 8.10417 19.9049C8.10417 21.2533 8.44743 22.2575 9.16263 22.9463C9.84949 23.6635 10.8509 24.0077 12.1669 24.0077ZM35.1415 27.1063C34.6264 27.1063 34.2832 27.0203 34.0543 26.8193C33.8255 26.6473 33.625 26.2456 33.4536 25.7007L26.7302 3.52296C26.558 2.94894 26.4723 2.57596 26.4723 2.37526C26.4723 1.91631 26.7011 1.65773 27.1592 1.65773H29.9629C30.5063 1.65773 30.8786 1.74404 31.0788 1.94474C31.3076 2.11701 31.4794 2.51876 31.6509 3.06368L36.4575 22.0568L40.9208 3.06368C41.0639 2.48999 41.2357 2.11701 41.4642 1.94474C41.6934 1.7728 42.0941 1.65807 42.6091 1.65807H44.8978C45.4412 1.65807 45.8135 1.74404 46.042 1.94474C46.2712 2.11701 46.4713 2.51876 46.5858 3.06368L51.1065 22.2863L56.0559 3.06368C56.2273 2.48999 56.4278 2.11701 56.628 1.94474C56.8568 1.7728 57.2288 1.65807 57.7438 1.65807H60.4045C60.8625 1.65807 61.12 1.88754 61.12 2.37526C61.12 2.51876 61.0913 2.66227 61.0626 2.8342C61.0339 3.00614 60.9769 3.23595 60.8625 3.55173L53.967 25.7291C53.7955 26.3031 53.5952 26.6761 53.3662 26.848C53.1373 27.0203 52.7654 27.135 52.2794 27.135H49.8189C49.2751 27.135 48.9032 27.0491 48.674 26.848C48.4452 26.6473 48.245 26.2743 48.1306 25.7007L43.6956 7.19522L39.2896 25.6716C39.1468 26.2456 38.975 26.6186 38.7462 26.8193C38.5174 27.0203 38.1167 27.1063 37.602 27.1063H35.1415ZM71.9065 27.881C70.4187 27.881 68.9309 27.7087 67.5005 27.3645C66.0697 27.0203 64.9542 26.647 64.2103 26.2171C63.7523 25.9586 63.4374 25.6719 63.3233 25.4137C63.2121 25.1604 63.1536 24.8869 63.1515 24.6102V23.147C63.1515 22.5446 63.3804 22.2575 63.8097 22.2575C63.9849 22.2582 64.1589 22.2873 64.3248 22.3439C64.4962 22.4014 64.7537 22.5158 65.04 22.6305C66.0504 23.0765 67.1054 23.4131 68.187 23.6347C69.3077 23.8626 70.4483 23.9779 71.5919 23.9789C73.3942 23.9789 74.7963 23.6635 75.769 23.0323C76.7418 22.4011 77.2568 21.4832 77.2568 20.3067C77.2568 19.5035 76.9993 18.8435 76.4842 18.2983C75.9692 17.753 74.9964 17.2656 73.5947 16.8064L69.4459 15.5155C67.3574 14.8555 65.8125 13.8801 64.8682 12.5889C63.9241 11.3264 63.4378 9.92081 63.4378 8.42889C63.4378 7.22398 63.6953 6.16236 64.2103 5.24401C64.7251 4.32612 65.4119 3.52296 66.2702 2.89174C67.1285 2.23175 68.1013 1.74404 69.2458 1.39983C70.39 1.05561 71.5916 0.912109 72.8505 0.912109C73.48 0.912109 74.1381 0.940878 74.7676 1.02685C75.4258 1.11281 76.0266 1.22755 76.6273 1.34229C77.1994 1.48579 77.7432 1.6293 78.2582 1.80157C78.7731 1.97351 79.1736 2.14556 79.4598 2.31772C79.8604 2.54753 80.1463 2.777 80.3181 3.03525C80.4898 3.26472 80.5756 3.58027 80.5756 3.98191V5.33032C80.5756 5.93277 80.3468 6.24855 79.9175 6.24855C79.6886 6.24855 79.3167 6.13348 78.8307 5.904C77.1993 5.15805 75.3682 4.78507 73.3372 4.78507C71.7063 4.78507 70.4187 5.04331 69.5317 5.58856C68.645 6.13348 68.187 6.96574 68.187 8.14188C68.187 8.94537 68.4732 9.63379 69.0453 10.179C69.6174 10.7243 70.6762 11.2692 72.1927 11.7569L76.2554 13.0481C78.3153 13.7081 79.8031 14.626 80.6901 15.8022C81.5771 16.9783 82.0064 18.327 82.0064 19.819C82.0064 21.0526 81.7485 22.1716 81.2622 23.147C80.7474 24.1224 80.0606 24.9831 79.1736 25.6719C78.2866 26.3891 77.2281 26.9056 75.9979 27.2785C74.7102 27.6803 73.3656 27.881 71.9065 27.881Z" fill="black"/>
<path d="M76.8598 41.2013C67.5699 47.8333 54.0721 51.3539 42.4667 51.3539C26.2017 51.3539 11.5466 45.5407 0.477529 35.8793C-0.397898 35.1153 0.392585 34.0783 1.43723 34.6784C13.4101 41.3925 28.1784 45.4589 43.4551 45.4589C53.7616 45.4589 65.0849 43.3848 75.5047 39.1272C77.0577 38.4447 78.3848 40.1099 76.8598 41.2013ZM80.7286 36.9437C79.5428 35.4701 72.8784 36.2341 69.8571 36.5889C68.9534 36.6984 68.8121 35.9341 69.6312 35.361C74.9398 31.7583 83.6654 32.7956 84.6817 33.9962C85.6984 35.2245 84.3992 43.6575 79.4295 47.6968C78.6673 48.3246 77.9331 47.9972 78.2719 47.1785C79.4012 44.4763 81.9145 38.3903 80.7286 36.9437Z" fill="#FF9900"/>
</svg>
