<svg width="134" height="33" viewBox="0 0 134 33" fill="none" xmlns="http://www.w3.org/2000/svg">
<path d="M92.8437 27.0633C87.1374 27.0633 84.9248 21.7721 84.9248 16.4197C84.9248 11.0007 87.1319 5.70951 92.8437 5.70951C98.5554 5.70951 100.768 11.0007 100.768 16.4197C100.768 21.7721 98.5554 27.0633 92.8437 27.0633ZM92.8437 0.357178C83.8213 0.357178 78.6086 7.12679 78.6086 16.4197C78.6086 25.7127 83.8213 32.4823 92.8437 32.4823C101.866 32.4823 107.084 25.7127 107.084 16.4197C107.084 7.12679 101.872 0.357178 92.8437 0.357178ZM0.701233 1.22422H23.3542V6.63769H7.02854V13.3462H22.2507V18.6374H7.02854V26.1462H23.3542V31.5652H0.701233V1.22422ZM38.0218 17.0311H32.3156V6.63214H38.0218C41.9535 6.63214 44.5931 8.36067 44.5931 11.8622C44.5931 15.3137 41.9535 17.0311 38.0218 17.0311ZM25.9994 31.5597H32.3211V22.4501H38.0218C45.6966 22.4501 50.8539 18.6318 50.8539 11.8677C50.8539 5.03699 45.6911 1.22422 38.0218 1.22422H25.9994V31.5597ZM115.868 1.22422H109.424V31.5597H115.624V19.2487C115.624 15.9251 115.502 12.9126 115.38 10.3282C116.118 11.8122 118.325 16.3586 119.306 18.0871L127.347 31.5652H133.791V1.22422H127.658V13.2183C127.658 16.5476 127.78 19.8657 127.902 22.5113C127.164 20.9773 124.957 16.4197 123.909 14.6968L115.868 1.22422ZM58.0407 21.5275C58.0407 25.5848 61.4123 27.1911 64.978 27.1911C67.3126 27.1911 71.1778 26.513 71.1778 23.3728C71.1778 20.0491 66.5086 19.4322 62.0334 18.265C57.3032 16.9755 52.7615 15.247 52.7615 9.58898C52.7615 3.30846 58.6563 0.357178 64.1795 0.357178C70.5678 0.357178 76.4016 3.12505 76.4016 10.2004H70.1352C69.8912 6.50986 67.0631 5.58723 63.8745 5.58723C61.7229 5.58723 59.0223 6.44316 59.0223 9.02762C59.0223 11.3675 60.5583 11.7344 68.2332 13.7074C70.4402 14.3188 77.4385 15.675 77.4385 22.5724C77.4385 28.2304 73.0189 32.4156 64.7285 32.4156C57.9797 32.4156 51.658 29.0919 51.7134 21.5275H58.0407Z" fill="black"/>
</svg>
