<svg width="104" height="44" viewBox="0 0 104 44" fill="none" xmlns="http://www.w3.org/2000/svg">
<path d="M103.442 22.8511C103.442 15.4983 99.9047 9.69657 93.1447 9.69657C86.3558 9.69657 82.2484 15.4985 82.2484 22.7937C82.2484 31.4387 87.0976 35.8045 94.0572 35.8045C97.4516 35.8045 100.019 35.029 101.958 33.9376V28.1932C100.019 29.1698 97.794 29.7731 94.9701 29.7731C92.2032 29.7731 89.7502 28.7964 89.4366 25.4073H103.385C103.385 25.0337 103.442 23.5403 103.442 22.8511ZM89.3509 20.1226C89.3509 16.877 91.3192 15.527 93.1162 15.527C94.856 15.527 96.7102 16.877 96.7102 20.1226H89.3509ZM71.2385 9.69657C68.443 9.69657 66.646 11.0177 65.6478 11.937L65.2768 10.1562H59.0017V43.6453L66.1325 42.1232L66.1612 33.995C67.1881 34.7418 68.6997 35.8045 71.2099 35.8045C76.3157 35.8045 80.965 31.6685 80.965 22.5639C80.9365 14.2345 76.23 9.69657 71.2383 9.69657M69.5268 29.4857C67.8439 29.4857 66.8453 28.8827 66.161 28.1359L66.1323 17.4801C66.874 16.6472 67.9009 16.0729 69.5268 16.0729C72.1224 16.0729 73.9194 19.0023 73.9194 22.7648C73.9194 26.6136 72.1509 29.4857 69.5268 29.4857ZM49.1894 8.00202L56.3489 6.45106V0.620605L49.1894 2.14289V8.00202ZM49.1894 10.1849H56.3489V35.3161H49.1894V10.1849ZM41.5167 12.3102L41.0602 10.1849H34.8991V35.3161H42.0301V18.2844C43.7128 16.0729 46.5653 16.475 47.4496 16.7908V10.1849C46.5368 9.84015 43.1996 9.20826 41.5167 12.3102ZM27.2546 3.95235L20.2948 5.44576L20.2664 28.4517C20.2664 32.7027 23.4326 35.8331 27.6541 35.8331C29.993 35.8331 31.7044 35.4024 32.6456 34.8854V29.0549C31.7331 29.4283 27.2261 30.7495 27.2261 26.4987V16.3025H32.6456V10.1849H27.2261L27.2546 3.95235ZM7.97257 17.4801C7.97257 16.3601 8.88531 15.9291 10.3973 15.9291C12.5649 15.9291 15.3032 16.5899 17.471 17.7674V11.0177C15.1036 10.07 12.7647 9.69657 10.3973 9.69657C4.60681 9.69657 0.756104 12.7411 0.756104 17.825C0.756104 25.7519 11.595 24.4883 11.595 27.9062C11.595 29.2272 10.4543 29.6582 8.85683 29.6582C6.48945 29.6582 3.46584 28.6815 1.06978 27.3604V34.1961C3.72255 35.345 6.40381 35.8331 8.85683 35.8331C14.7897 35.8331 18.8687 32.875 18.8687 27.7338C18.8402 19.1748 7.97257 20.6969 7.97257 17.4801Z" fill="#635BFF"/>
</svg>
