<svg width="45" height="29" viewBox="0 0 45 29" fill="none" xmlns="http://www.w3.org/2000/svg">
<path d="M5.7025 28.28H0.435V6.6325H5.755V8.7325C5.91833 8.40583 6.2275 8.05 6.6825 7.665C7.14917 7.26833 7.73833 6.93 8.45 6.65C9.17333 6.35833 9.99 6.2125 10.9 6.2125C12.3 6.2125 13.4958 6.55667 14.4875 7.245C15.4908 7.93333 16.2608 8.855 16.7975 10.01C17.3342 11.1533 17.6025 12.425 17.6025 13.825C17.6025 15.225 17.3167 16.5025 16.745 17.6575C16.1733 18.8008 15.3683 19.7167 14.33 20.405C13.3033 21.0817 12.09 21.42 10.69 21.42C9.68667 21.42 8.82917 21.245 8.1175 20.895C7.4175 20.5333 6.86333 20.1367 6.455 19.705C6.05833 19.2617 5.8075 18.9175 5.7025 18.6725V28.28ZM12.405 13.825C12.405 13.1717 12.2592 12.5883 11.9675 12.075C11.6758 11.55 11.2792 11.1417 10.7775 10.85C10.2875 10.5467 9.73333 10.395 9.115 10.395C8.47333 10.395 7.89583 10.5467 7.3825 10.85C6.88083 11.1417 6.48417 11.55 6.1925 12.075C5.90083 12.5883 5.755 13.1717 5.755 13.825C5.755 14.4783 5.90083 15.0675 6.1925 15.5925C6.48417 16.1058 6.88083 16.5083 7.3825 16.8C7.89583 17.0917 8.47333 17.2375 9.115 17.2375C9.73333 17.2375 10.2875 17.0917 10.7775 16.8C11.2792 16.5083 11.6758 16.1058 11.9675 15.5925C12.2592 15.0675 12.405 14.4783 12.405 13.825ZM25.0892 16.3975L28.9742 6.6325H34.1892L24.3192 28.28H18.9992L22.3242 21L16.3217 6.6325H21.6242L25.0892 16.3975ZM32.1819 6.6325H34.6319V0.734998H39.8994V6.6325H43.1194V11.0075H39.8994V15.015C39.8994 15.61 39.9869 16.0942 40.1619 16.4675C40.3369 16.8292 40.6577 17.01 41.1244 17.01C41.4394 17.01 41.7077 16.94 41.9294 16.8C42.1511 16.66 42.2852 16.5667 42.3319 16.52L44.1519 20.3C44.0702 20.37 43.8136 20.4983 43.3819 20.685C42.9619 20.8717 42.4252 21.0408 41.7719 21.1925C41.1186 21.3442 40.3894 21.42 39.5844 21.42C38.1494 21.42 36.9652 21.0175 36.0319 20.2125C35.0986 19.3958 34.6319 18.1417 34.6319 16.45V11.0075H32.1819V6.6325Z" fill="black"/>
</svg>
