<?xml version="1.0" encoding="UTF-8"?>
<!-- Generator: visioncortex VTracer -->
<svg id="svg" version="1.1" xmlns="http://www.w3.org/2000/svg" style="display: block;" viewBox="0 0 2840 1016"><path d="M0 0 C45.21 0 90.42 0 137 0 C137 41.91 137 83.82 137 127 C148.385 126.505 148.385 126.505 160 126 C165.27961977 125.90568191 170.54400912 125.81408518 175.82202148 125.81469727 C177.99285704 125.8124425 180.16323311 125.79393582 182.33398438 125.77539062 C195.61105044 125.72108808 195.61105044 125.72108808 202 128 C204 130 204 130 204.21118164 133.10327148 C204.2041346 134.44263503 204.18630444 135.78196693 204.16015625 137.12109375 C204.15459213 137.84372406 204.14902802 138.56635437 204.14329529 139.31088257 C204.13084283 140.87083647 204.11416417 142.43076108 204.09375 143.9906311 C204.04099635 148.12123127 204.02162722 152.25193388 204.00390625 156.3828125 C203.99996857 157.21063736 203.99603088 158.03846222 203.99197388 158.89137268 C203.97182925 165.875032 204.18141242 172.83607134 204.5 179.8125 C204.90687548 189.17423039 205.13650466 198.52427415 205.17724609 207.89413452 C205.18402864 209.28707974 205.19422755 210.68001293 205.20800781 212.07290649 C205.22580565 214.00687026 205.22847322 215.94095537 205.23046875 217.875 C205.23457764 218.98617187 205.23868652 220.09734375 205.24291992 221.2421875 C205 224 205 224 203 227 C200.48266602 227.35644531 200.48266602 227.35644531 197.25390625 227.328125 C195.40249023 227.32039063 195.40249023 227.32039063 193.51367188 227.3125 C192.20978516 227.291875 190.90589844 227.27125 189.5625 227.25 C187.7980957 227.24226563 187.7980957 227.24226563 185.99804688 227.234375 C169.6624685 227.10243696 153.32802369 226.4887496 137 226 C137.03716498 244.03712798 137.09702309 262.07403103 137.18390274 280.11098766 C137.22371329 288.48586028 137.25609549 296.86063866 137.27099609 305.2355957 C137.28400222 312.53516401 137.3109401 319.83452513 137.35461307 327.13397676 C137.37725151 330.99908451 137.39290927 334.86393651 137.39188385 338.72911644 C137.39113862 342.3678687 137.40903316 346.00605509 137.44116783 349.64466095 C137.45373624 351.61532669 137.44659206 353.58608731 137.43885803 355.55677795 C137.45972725 357.32143906 137.45972725 357.32143906 137.48101807 359.12174988 C137.48654882 360.65238713 137.48654882 360.65238713 137.49219131 362.21394634 C138.13501142 365.74072989 139.54466147 367.43676093 142 370 C150.02536451 373.25983846 160.53695666 370.44378266 168.6875 369 C183.40125698 366.42139013 183.40125698 366.42139013 188 367 C191.69927729 369.63692073 192.93655231 372.73588519 194.4375 376.9375 C194.85773437 378.09378906 195.27796875 379.25007813 195.7109375 380.44140625 C196.13632813 381.61574219 196.56171875 382.79007812 197 384 C197.85235694 386.12572655 198.70649419 388.25074019 199.5625 390.375 C201.75360958 396.08413334 203.40460737 401.82325933 204.8984375 407.75 C205.68427921 410.85784855 206.55949675 413.92835412 207.4765625 417 C212.28486599 433.33126664 215.32618991 449.92131358 215 467 C215.04447266 468.25296875 215.04447266 468.25296875 215.08984375 469.53125 C214.83492464 472.82558932 214.14826665 475.01340551 211.578125 477.22167969 C200.65842297 485.02410192 189.11466682 488.19039894 176.0625 490.625 C174.94681641 490.8415625 173.83113281 491.058125 172.68164062 491.28125 C160.69691611 493.55603075 149.05982388 494.23856611 136.875 494.25 C136.12700134 494.25100708 135.37900269 494.25201416 134.6083374 494.25305176 C121.22102213 494.24093299 108.21095939 493.26200318 95 491 C93.64334229 490.77521973 93.64334229 490.77521973 92.25927734 490.54589844 C61.82891659 485.39303131 43.2762142 471.18016939 25 447 C24.48824219 446.33355469 23.97648437 445.66710937 23.44921875 444.98046875 C20 440.3653169 20 440.3653169 20 437 C19.34 437 18.68 437 18 437 C8.30486817 423.9731046 -0.13244837 406.4079534 -0.12025452 389.98283386 C-0.12110894 389.28844139 -0.12196337 388.59404892 -0.12284368 387.87861425 C-0.12448698 385.55861673 -0.118996 383.23869199 -0.11352539 380.91870117 C-0.11324324 379.25296022 -0.11340179 377.58721915 -0.1139679 375.92147827 C-0.1142548 371.40331251 -0.1083753 366.88517329 -0.10139394 362.36701369 C-0.09514264 357.64379114 -0.09455519 352.92056797 -0.09336853 348.19734192 C-0.09026046 339.25497082 -0.08205412 330.31261195 -0.07201904 321.37024623 C-0.06084165 311.18894718 -0.05534335 301.00764755 -0.05032361 290.82634389 C-0.03987108 269.88422244 -0.02228176 248.94211199 0 228 C-0.89275635 228.41934814 -1.7855127 228.83869629 -2.70532227 229.27075195 C-3.87635498 229.81691162 -5.0473877 230.36307129 -6.25390625 230.92578125 C-7.4147876 231.46887939 -8.57566895 232.01197754 -9.77172852 232.5715332 C-12.18674715 233.64014653 -14.39732035 234.52650395 -16.9375 235.1875 C-21.74835627 236.46384962 -25.00306858 237.77519854 -28.1875 241.6875 C-29.80493502 244.64350193 -30.92460655 247.51793114 -32.03515625 250.6875 C-33.6662448 254.59682964 -35.95072413 258.12454078 -38.12109375 261.75390625 C-40.64169771 266.10862951 -42.83703637 270.59668126 -45.05859375 275.109375 C-47.25674176 279.54938093 -49.56245376 283.93125195 -51.875 288.3125 C-52.29998779 289.11800293 -52.72497559 289.92350586 -53.1628418 290.75341797 C-55.22137223 294.64924037 -57.28711487 298.54115231 -59.359375 302.4296875 C-60.11482007 303.84883234 -60.87003208 305.26810127 -61.625 306.6875 C-61.99262451 307.37827637 -62.36024902 308.06905273 -62.73901367 308.78076172 C-65.30536283 313.62660265 -67.76299987 318.51942731 -70.1875 323.4375 C-72.74140961 328.61437744 -75.48086125 333.56808803 -78.51953125 338.48046875 C-80.56941823 341.96906269 -82.33722816 345.58155613 -84.12231445 349.21118164 C-86.58456404 354.2051238 -89.14848039 359.1397882 -91.75 364.0625 C-92.17120117 364.85970459 -92.59240234 365.65690918 -93.02636719 366.47827148 C-93.90220201 368.13549158 -94.77818115 369.79263542 -95.65429688 371.44970703 C-97.94677286 375.79426511 -100.22282231 380.1474097 -102.5 384.5 C-105.97000632 391.12985465 -109.44861402 397.75506251 -112.9375 404.375 C-116.6430673 411.40729065 -120.32610321 418.45111556 -124 425.5 C-128.90265109 434.90591358 -133.83120164 444.29781737 -138.77783203 453.68066406 C-140.02883751 456.05472559 -141.27832383 458.4295808 -142.52734375 460.8046875 C-146.53018569 468.41616959 -150.53812982 476.02487508 -154.5625 483.625 C-154.92923828 484.31795166 -155.29597656 485.01090332 -155.67382812 485.72485352 C-157.53773786 489.24516099 -159.40608852 492.76301594 -161.28125 496.27734375 C-165.01464984 503.28564173 -168.676348 510.31492551 -172.1875 517.4375 C-174.76247215 522.65724207 -177.52338611 527.659154 -180.5859375 532.61328125 C-182.67942759 536.14676868 -184.44816279 539.82287812 -186.2578125 543.5078125 C-188.32032734 547.64209113 -190.4660543 551.72797393 -192.625 555.8125 C-196.438035 563.03065379 -200.22826426 570.26017498 -204 577.5 C-209.70573457 588.44719678 -215.45135336 599.37300298 -221.20898438 610.29296875 C-226.25989356 619.87424254 -231.29621987 629.46304441 -236.3125 639.0625 C-236.80411621 640.0019043 -237.29573242 640.94130859 -237.80224609 641.90917969 C-238.5130835 643.27091309 -238.5130835 643.27091309 -239.23828125 644.66015625 C-239.65118408 645.45043213 -240.06408691 646.24070801 -240.48950195 647.05493164 C-242.69375676 651.35264067 -244.83995175 655.6799035 -247 660 C-295.51 660 -344.02 660 -394 660 C-395.28436132 654.86255472 -393.5342179 652.59838353 -391.0625 648.25 C-390.21448982 646.70663792 -389.36816942 645.16234632 -388.5234375 643.6171875 C-388.09514648 642.83956055 -387.66685547 642.06193359 -387.22558594 641.26074219 C-385.46131535 638.00633071 -383.81968541 634.69707869 -382.1875 631.375 C-378.36233052 623.64035438 -374.36123104 616.00086381 -370.35668945 608.35791016 C-367.08686583 602.10849927 -363.8993755 595.82842255 -360.76953125 589.5078125 C-358.58840391 585.18407663 -356.32810957 580.90490997 -354.0625 576.625 C-348.87217413 566.81399433 -343.89776781 556.90498837 -339.0078125 546.94140625 C-335.24835931 539.31182011 -331.27119064 531.91248075 -327 524.5546875 C-323.74116366 518.84854145 -320.89337979 512.92918323 -318 507.03222656 C-316.35030198 503.67966642 -314.67409159 500.34042708 -313 497 C-311.05181285 493.1088008 -309.10563704 489.21673542 -307.17578125 485.31640625 C-303.04866219 476.99221695 -298.79671046 468.7379708 -294.5 460.5 C-288.83853526 449.64380194 -288.83853526 449.64380194 -283.25 438.75 C-282.92708984 438.12544922 -282.60417969 437.50089844 -282.27148438 436.85742188 C-279.87172533 432.13520226 -279.87172533 432.13520226 -279 427 C-280.0373585 424.40808146 -281.11147571 422.12236265 -282.4375 419.6875 C-283.18801394 418.25417524 -283.9379995 416.82057371 -284.6875 415.38671875 C-285.07421875 414.65759277 -285.4609375 413.9284668 -285.859375 413.17724609 C-287.2792125 410.46703401 -288.62482197 407.72411861 -289.96899414 404.97583008 C-292.96110488 398.8716828 -296.12934806 392.90332436 -299.5 387 C-305.92449475 375.73722073 -311.5166701 364.10135137 -317.00024414 352.35791016 C-320.20493744 345.51340524 -323.5805565 338.76054215 -326.98681641 332.01464844 C-328.03385314 329.93268527 -329.07092679 327.84601035 -330.10546875 325.7578125 C-334.15207358 317.55014098 -334.15207358 317.55014098 -338.5 309.5 C-342.66312541 302.16231743 -346.27166886 294.51188633 -350.01318359 286.953125 C-354.84082951 277.2081263 -359.83084106 267.56844315 -365 258 C-368.04353068 260.21347686 -369.00577251 263.01974441 -369.79882812 266.62304688 C-370.19609888 271.31701299 -368.8874779 275.72567889 -367.75 280.25 C-367.27052387 282.30561435 -366.79264017 284.36160084 -366.31640625 286.41796875 C-366.0858252 287.39040527 -365.85524414 288.3628418 -365.61767578 289.36474609 C-363.36002701 298.99678597 -362.54173064 308.11828892 -363 318 C-363.05365723 319.2360498 -363.05365723 319.2360498 -363.10839844 320.49707031 C-364.66152334 351.8203119 -374.28044277 384.52053408 -392.921875 410.03515625 C-395.08670459 413.01659268 -395.08670459 413.01659268 -396.94140625 416.4765625 C-398.97770147 420.11822534 -401.45002421 423.17725063 -404.1875 426.3125 C-404.66582275 426.8686499 -405.14414551 427.4247998 -405.63696289 427.99780273 C-410.0133784 433.06649156 -414.43932207 438.09614234 -419 443 C-419.68191406 443.75152344 -420.36382813 444.50304687 -421.06640625 445.27734375 C-423 447 -423 447 -426 447 C-426.35771484 447.87398438 -426.35771484 447.87398438 -426.72265625 448.765625 C-429.27089141 453.22308834 -433.96146196 455.95037893 -438 459 C-438.93199219 459.7115625 -439.86398437 460.423125 -440.82421875 461.15625 C-445.3859965 464.56644926 -449.81255301 467.62857411 -454.98828125 470.01171875 C-457.34936718 471.17163086 -459.52247182 472.5386548 -461.75 473.9375 C-467.27189701 477.28588436 -472.99296205 479.66274206 -479 482 C-480.15886719 482.4846875 -481.31773437 482.969375 -482.51171875 483.46875 C-493.99156545 488.16409447 -505.8285482 490.75292821 -518 493 C-518.72155273 493.13422363 -519.44310547 493.26844727 -520.18652344 493.40673828 C-551.61342479 498.96784502 -589.56365493 494.72295973 -618 480 C-619.72103189 479.31260561 -621.45008621 478.64486831 -623.1875 478 C-628.50741299 475.92016326 -633.17265049 473.02364217 -638 470 C-640.55582749 468.49262145 -643.11475147 466.99070741 -645.67578125 465.4921875 C-648.24367106 463.84355908 -650.61713002 461.90629599 -653 460 C-653.33 526 -653.66 592 -654 660 C-696.57 660 -739.14 660 -783 660 C-783 484.11 -783 308.22 -783 127 C-740.43 127 -697.86 127 -654 127 C-653.67 135.58 -653.34 144.16 -653 153 C-651.68 152.67 -650.36 152.34 -649 152 C-648.31891687 150.67397285 -647.6539011 149.33964009 -647 148 C-643.55872014 145.3364105 -639.72319565 143.24721452 -636 141 C-634.9378125 140.29488281 -633.875625 139.58976563 -632.78125 138.86328125 C-593.34199127 113.03454481 -541.5551677 112.04433189 -496.81640625 121.33447266 C-489.74974601 123.00435093 -482.97517659 125.50781159 -476.21923828 128.14160156 C-474.18643869 128.92788576 -472.14399126 129.67021129 -470.08984375 130.3984375 C-456.33592491 135.48812298 -443.54071073 142.97686884 -432 152 C-432.25394531 151.31035156 -432.50789063 150.62070313 -432.76953125 149.91015625 C-433.85606975 146.94353989 -434.92987346 143.97257371 -436 141 C-436.30808594 140.15566406 -436.61617187 139.31132812 -436.93359375 138.44140625 C-437.33771484 137.29478516 -437.33771484 137.29478516 -437.75 136.125 C-437.99234375 135.44695312 -438.2346875 134.76890625 -438.484375 134.0703125 C-439.0849538 131.65889761 -439.03367103 129.47686149 -439 127 C-419.82431809 126.78965474 -400.64887061 126.63100072 -381.47227383 126.53369045 C-372.56795601 126.48730408 -363.66435544 126.42407766 -354.76049805 126.32104492 C-346.99882607 126.23127211 -339.23767355 126.17326056 -331.47549683 126.15320355 C-327.36604597 126.14148048 -323.25808098 126.11398253 -319.14910698 126.04842949 C-315.27857581 125.98718271 -311.41013714 125.96852457 -307.5391674 125.98203087 C-306.12132883 125.97956153 -304.70341794 125.96174395 -303.2859993 125.92715073 C-292.60110707 125.67924219 -292.60110707 125.67924219 -288.63630867 128.94981575 C-286.83404904 131.22475665 -285.38741242 133.45524345 -284 136 C-283.6199755 136.60355536 -283.239951 137.20711073 -282.84841061 137.82895565 C-281.84300467 139.43562753 -280.91977517 141.09281888 -280 142.75 C-279.49992432 143.64585815 -279.49992432 143.64585815 -278.98974609 144.55981445 C-277.98414506 146.36841678 -276.99035214 148.18301111 -276 150 C-275.43539063 151.02996094 -274.87078125 152.05992187 -274.2890625 153.12109375 C-266.73205118 167.04657235 -259.45423424 181.1256184 -252.10644531 195.16210938 C-248.67508301 201.71574575 -245.23450822 208.26447308 -241.78271484 214.80737305 C-239.53071925 219.07900128 -237.29288757 223.35751187 -235.0703125 227.64453125 C-234.57917969 228.58941406 -234.08804688 229.53429687 -233.58203125 230.5078125 C-232.63647274 232.32794925 -231.69360204 234.14948579 -230.75390625 235.97265625 C-228.93540339 239.46852443 -227.11775934 242.82336099 -224.9296875 246.10546875 C-223.02661798 248.96007303 -221.55217192 251.82257223 -220.05371094 254.8984375 C-218.23615851 258.52343548 -216.18408456 262.00813083 -214.125 265.5 C-213.68518799 266.24612549 -213.24537598 266.99225098 -212.79223633 267.76098633 C-209.81476206 272.75703153 -206.7081082 277.51006176 -203 282 C-202.35804688 282.83917969 -202.35804688 282.83917969 -201.703125 283.6953125 C-199.14738823 286.96097615 -196.68824713 289.10318719 -193 291 C-192.89558594 289.63875 -192.89558594 289.63875 -192.7890625 288.25 C-191.96467218 282.52809924 -189.55622738 277.31462525 -187.375 272 C-186.69884644 270.3298584 -186.69884644 270.3298584 -186.0090332 268.62597656 C-183.05538482 261.39345275 -179.8967796 254.30402658 -176.51171875 247.265625 C-174.5499126 243.02771817 -172.94373311 238.68961345 -171.3125 234.31640625 C-169.58880559 229.96099983 -167.60288396 225.75426671 -165.59033203 221.52661133 C-163.33477564 216.77369995 -161.28020475 211.96412398 -159.3359375 207.07421875 C-157.79594933 203.53044479 -156.07020873 200.10497855 -154.32910156 196.65649414 C-152.21364942 192.42830994 -150.20621481 188.14997285 -148.1875 183.875 C-130.24269474 146.06583708 -130.24269474 146.06583708 -120 131 C-119.35834286 129.95466787 -119.35834286 129.95466787 -118.70372295 128.88821793 C-117 127 -117 127 -114.80362415 126.50780869 C-113.51357487 126.51333944 -113.51357487 126.51333944 -112.19746399 126.51898193 C-110.71767421 126.51071695 -110.71767421 126.51071695 -109.20798969 126.502285 C-108.12268561 126.51667744 -107.03738153 126.53106987 -105.91918945 126.54589844 C-104.17905846 126.54517523 -104.17905846 126.54517523 -102.40377331 126.54443741 C-98.63996635 126.54742851 -94.87694688 126.57791451 -91.11328125 126.609375 C-88.7930947 126.61525441 -86.47290287 126.61933619 -84.15270996 126.62158203 C-75.53922585 126.64257358 -66.92585524 126.69841824 -58.3125 126.75 C-29.4478125 126.87375 -29.4478125 126.87375 0 127 C0 85.09 0 43.18 0 0 Z M-629 242 C-629 242.66 -629 243.32 -629 244 C-629.57105469 244.23847656 -630.14210938 244.47695313 -630.73046875 244.72265625 C-643.91409712 252.14270182 -650.53325117 269.04138196 -654.42480469 282.82226562 C-658.77063521 299.27591939 -657.07125339 314.98069777 -652 331 C-651.73574219 331.95261719 -651.47148438 332.90523438 -651.19921875 333.88671875 C-646.86401602 347.96071813 -635.62805565 360.46759976 -624 369 C-623.06994141 369.77537109 -623.06994141 369.77537109 -622.12109375 370.56640625 C-608.26536455 381.28710177 -586.53583195 383.52767735 -569.72265625 381.5390625 C-549.77615278 378.80479346 -532.97065571 371.9242175 -520.47314453 355.53222656 C-506.88039985 336.04010696 -503.83478557 310.37468099 -507.6171875 287.33203125 C-508.50478752 283.73057453 -509.60850871 280.43780201 -511 277 C-511.28439941 276.27393555 -511.56879883 275.54787109 -511.86181641 274.79980469 C-515.49461799 265.62995608 -519.32519135 257.38000956 -526 250 C-526.87655518 248.87621131 -527.75169612 247.75131715 -528.625 246.625 C-530.96248171 244.04146759 -532.99570885 242.69472834 -536 241 C-536.598125 240.37351562 -537.19625 239.74703125 -537.8125 239.1015625 C-549.25077793 228.11264549 -568.09922351 225.56866233 -583.234375 225.7890625 C-598.58390966 226.2867856 -617.44466915 231.2224318 -629 242 Z " transform="translate(1814,16)" style="fill: #000000;"/><path d="M0 0 C3.77423634 2.48685123 7.16064751 5.40612599 10.16015625 8.796875 C10.66804688 8.32636719 11.1759375 7.85585938 11.69921875 7.37109375 C12.38757812 6.74847656 13.0759375 6.12585938 13.78515625 5.484375 C14.79449219 4.56205078 14.79449219 4.56205078 15.82421875 3.62109375 C23.10099545 -2.06160645 30.21426228 -2.22057646 39.16015625 -1.203125 C44.87277071 0.82225649 48.76359378 4.84759826 52.16015625 9.796875 C55.40765134 16.67104171 55.55741981 22.64121328 55.453125 30.171875 C55.44888016 31.3369458 55.44463531 32.5020166 55.44026184 33.70239258 C55.42355275 37.40079465 55.38591386 41.09863934 55.34765625 44.796875 C55.33259942 47.31379418 55.31891277 49.83072195 55.30664062 52.34765625 C55.27367451 58.49760855 55.22194504 64.64714747 55.16015625 70.796875 C50.54015625 70.796875 45.92015625 70.796875 41.16015625 70.796875 C41.1351001 69.44529297 41.11004395 68.09371094 41.08422852 66.70117188 C40.9896859 61.66169604 40.8895816 56.62234306 40.7878418 51.58300781 C40.74466947 49.40660487 40.70298279 47.2301719 40.6628418 45.05371094 C40.60470805 41.91592381 40.54114022 38.77828533 40.4765625 35.640625 C40.45985001 34.67572144 40.44313751 33.71081787 40.42591858 32.7166748 C40.30948439 27.34394665 40.0832106 22.09750796 39.16015625 16.796875 C37.41015625 15.296875 37.41015625 15.296875 35.16015625 14.796875 C34.56203125 14.425625 33.96390625 14.054375 33.34765625 13.671875 C30.09813572 12.37206679 27.63123408 12.43779798 24.16015625 12.796875 C19.35376619 15.2471915 16.75251254 18.0922284 14.16015625 22.796875 C12.78758085 27.65495658 12.93528874 32.68099111 12.84375 37.69140625 C12.8229689 38.63876144 12.80218781 39.58611664 12.78077698 40.56217957 C12.71557847 43.5778401 12.65653493 46.5935851 12.59765625 49.609375 C12.55444277 51.65821174 12.51082759 53.70704004 12.46679688 55.75585938 C12.35992759 60.76944547 12.25857694 65.78311623 12.16015625 70.796875 C7.87015625 70.796875 3.58015625 70.796875 -0.83984375 70.796875 C-0.86957275 68.70835205 -0.86957275 68.70835205 -0.89990234 66.57763672 C-0.97611003 61.40021008 -1.06480432 56.22305892 -1.15722656 51.04589844 C-1.19545363 48.80734709 -1.23031736 46.56873563 -1.26171875 44.33007812 C-1.30750523 41.10785474 -1.36547789 37.88604293 -1.42578125 34.6640625 C-1.43733246 33.66696259 -1.44888367 32.66986267 -1.46078491 31.64254761 C-1.56521137 26.69957177 -1.73071495 22.37024581 -3.83984375 17.796875 C-4.49984375 17.466875 -5.15984375 17.136875 -5.83984375 16.796875 C-5.83984375 16.136875 -5.83984375 15.476875 -5.83984375 14.796875 C-9.97394809 12.79246078 -13.26479656 12.38838864 -17.83984375 12.796875 C-20.56966207 14.15088145 -20.56966207 14.15088145 -22.83984375 15.796875 C-23.82984375 16.126875 -24.81984375 16.456875 -25.83984375 16.796875 C-27.00497988 18.99620435 -27.00497988 18.99620435 -27.83984375 21.796875 C-28.18063965 22.80758057 -28.52143555 23.81828613 -28.87255859 24.85961914 C-30.16456617 29.43180333 -30.19206473 33.94296963 -30.25390625 38.66796875 C-30.2732724 39.590298 -30.29263855 40.51262726 -30.31259155 41.46290588 C-30.37200495 44.38663711 -30.41861884 47.31040853 -30.46484375 50.234375 C-30.50305877 52.2259279 -30.54211252 54.2174649 -30.58203125 56.20898438 C-30.67767479 61.07148423 -30.76184596 65.93406138 -30.83984375 70.796875 C-35.12984375 70.796875 -39.41984375 70.796875 -43.83984375 70.796875 C-43.83984375 47.696875 -43.83984375 24.596875 -43.83984375 0.796875 C-39.87984375 0.796875 -35.91984375 0.796875 -31.83984375 0.796875 C-31.17984375 2.776875 -30.51984375 4.756875 -29.83984375 6.796875 C-29.39253906 6.38695312 -28.94523437 5.97703125 -28.484375 5.5546875 C-27.87980469 5.01585937 -27.27523438 4.47703125 -26.65234375 3.921875 C-26.06066406 3.38820313 -25.46898437 2.85453125 -24.859375 2.3046875 C-18.19370277 -2.67200395 -7.5821454 -3.21224317 0 0 Z " transform="translate(1094.83984375,902.203125)" style="fill: #000000;"/><path d="M0 0 C5.75392668 6.53791668 7.34632823 13.12269223 7.19921875 21.62109375 C6.48020446 29.87366072 3.8347635 35.24861703 -2.3125 40.8125 C-3.87847839 42.10465847 -5.45611937 43.38342718 -7.0625 44.625 C-6.155 45.57375 -5.2475 46.5225 -4.3125 47.5 C2.14389694 55.08511129 3.96537375 65.00886333 6.125 74.5 C6.38474609 75.61375 6.64449219 76.7275 6.91210938 77.875 C7.39058622 79.92738131 7.86584821 81.98051704 8.33666992 84.03466797 C8.84747071 86.23686072 9.38921013 88.4318405 9.9375 90.625 C4.9875 90.625 0.0375 90.625 -5.0625 90.625 C-7.60167055 83.36015094 -9.97732404 76.39500402 -11.43896484 68.84155273 C-12.81485525 61.84731479 -14.18617406 56.96367652 -20.2578125 52.65625 C-27.38738063 48.58221107 -27.42049229 50.41512548 -40.0625 49.625 C-40.0625 63.155 -40.0625 76.685 -40.0625 90.625 C-44.6825 90.625 -49.3025 90.625 -54.0625 90.625 C-54.0625 58.945 -54.0625 27.265 -54.0625 -5.375 C-38.34755533 -9.86498419 -12.86522094 -12.14004147 0 0 Z M-40.0625 5.625 C-40.0625 16.185 -40.0625 26.745 -40.0625 37.625 C-30.83966356 37.79965178 -30.83966356 37.79965178 -22.0625 36.75 C-21.19625 36.58757813 -20.33 36.42515625 -19.4375 36.2578125 C-14.10109032 34.83594018 -11.80228906 32.67892411 -9.0546875 27.96875 C-6.96198275 23.02535296 -7.13753851 18.3582612 -8.84375 13.31640625 C-10.9399984 9.23620847 -13.16661907 7.15988781 -17.5 5.625 C-24.5727615 3.96332712 -33.11580099 3.30943366 -40.0625 5.625 Z " transform="translate(124.0625,882.375)" style="fill: #000000;"/><path d="M0 0 C0.86625 0.53625 1.7325 1.0725 2.625 1.625 C11.56614389 10.56614389 13.36139225 20.68118698 13.375 32.8125 C13.39949219 33.95009766 13.42398437 35.08769531 13.44921875 36.25976562 C13.47408552 43.4421164 12.60805875 48.76103049 9 55 C8.505 55.87011719 8.01 56.74023438 7.5 57.63671875 C2.54321133 64.41357826 -3.59494889 68.92247155 -12.02880859 70.34130859 C-14.21374457 70.57920279 -16.36558348 70.69491796 -18.5625 70.75 C-19.23394043 70.77779541 -19.90538086 70.80559082 -20.59716797 70.83422852 C-27.9930311 70.69825555 -30.68113647 67.99210738 -38 64 C-38.33 74.56 -38.66 85.12 -39 96 C-43.62 96 -48.24 96 -53 96 C-53.33 63.66 -53.66 31.32 -54 -2 C-49.38 -2 -44.76 -2 -40 -2 C-39.67 0.31 -39.34 2.62 -39 5 C-38.57589844 4.60167969 -38.15179687 4.20335937 -37.71484375 3.79296875 C-26.78061414 -6.08388481 -12.59465554 -7.83981929 0 0 Z M-34.5546875 15.40234375 C-40.18132174 21.62205566 -39.23850346 31.14193879 -39 39 C-39.00644531 39.70382812 -39.01289062 40.40765625 -39.01953125 41.1328125 C-38.79774451 46.5190619 -36.6248054 49.56677465 -33.01953125 53.296875 C-28.54763419 57.06814602 -24.25014741 58.31250951 -18.4375 57.9375 C-14.03458015 57.20241699 -10.33468547 56.0526474 -7 53 C-0.78074929 44.23504563 -0.05062445 35.50713388 -1 25 C-2.81013283 19.1039242 -5.56046711 14.16251912 -11 11 C-20.47347302 6.81192023 -26.75951919 8.60423185 -34.5546875 15.40234375 Z " transform="translate(1578,905)" style="fill: #000000;"/><path d="M0 0 C4.29 0 8.58 0 13 0 C13.33 33.66 13.66 67.32 14 102 C9.71 102 5.42 102 1 102 C0.505 98.535 0.505 98.535 0 95 C-0.45375 95.556875 -0.9075 96.11375 -1.375 96.6875 C-8.73265454 103.16924328 -16.36051331 105.09045189 -26.01953125 104.5390625 C-34.16335921 103.68264074 -40.77745337 99.94891927 -46.0625 93.75 C-51.75096145 86.28118039 -52.48921776 77.06127594 -52.375 68 C-52.38660156 67.07960938 -52.39820312 66.15921875 -52.41015625 65.2109375 C-52.36705746 55.01089006 -49.8604204 45.74945976 -43 38 C-34.27783485 30.81613558 -26.02393967 29.02801563 -14.95458984 29.73974609 C-9.54308454 30.46028877 -4.81276416 33.18723584 -1 37 C-0.67 24.79 -0.34 12.58 0 0 Z M-31.796875 47.69921875 C-36.59948195 53.55982575 -38.59043603 60.10914227 -39.375 67.5625 C-38.48768555 75.69621579 -35.59961018 82.7515713 -29.4375 88.3125 C-24.59593377 91.66435355 -19.68721723 91.47985895 -14 91 C-8.23175305 89.04097273 -4.68593287 85.39884066 -2.0234375 80.03125 C1.3556535 71.31509004 0.97601543 61.90068605 -2.01953125 53.125 C-4.24306273 48.305872 -8.27600253 45.19720812 -13 43 C-20.32877498 41.16780625 -26.18987203 42.3969442 -31.796875 47.69921875 Z " transform="translate(2604,871)" style="fill: #000000;"/><path d="M0 0 C0.63164063 0.4125 1.26328125 0.825 1.9140625 1.25 C2.60757812 1.6625 3.30109375 2.075 4.015625 2.5 C10.47571075 6.75833367 14.48125816 12.95158698 16.9140625 20.25 C17.20384663 24.80780471 17.19191935 29.37153335 17.2265625 33.9375 C17.27006836 35.81985352 17.27006836 35.81985352 17.31445312 37.74023438 C17.3637118 44.93579038 17.01159151 50.23948205 12.9140625 56.25 C12.39585938 57.09949219 11.87765625 57.94898438 11.34375 58.82421875 C6.30064865 65.67928868 0.23614057 69.42933312 -8.0859375 71.25 C-20.93293471 71.9316774 -30.41941821 71.17019708 -41.0859375 63.25 C-43.60571723 60.57273404 -44.0859375 59.95908301 -44.0859375 56.25 C-44.7459375 56.25 -45.4059375 56.25 -46.0859375 56.25 C-49.78932812 49.19041163 -50.49593088 42.45544666 -50.5234375 34.625 C-50.53310547 33.74303955 -50.54277344 32.8610791 -50.55273438 31.95239258 C-50.42887715 22.19226125 -47.54574167 13.66931483 -41.0859375 6.25 C-30.44836101 -2.96572221 -13.03067325 -7.24485308 0 0 Z M-26.0859375 12.25 C-27.1171875 12.95125 -28.1484375 13.6525 -29.2109375 14.375 C-34.25919264 18.7354466 -35.09360618 25.23554626 -35.9609375 31.5625 C-36.47011242 39.2867918 -35.20626719 47.14646289 -30.2734375 53.3125 C-26.2933501 57.31209763 -22.43975298 59.36634322 -16.7734375 59.75 C-11.39357009 59.52319277 -7.19807114 57.70865503 -3.0859375 54.25 C3.15500466 45.89902501 3.72140657 37.44271891 2.9140625 27.25 C1.06112919 20.27128922 -2.8584736 14.45054357 -8.8359375 10.375 C-15.04416983 8.2259965 -20.75731027 8.07350839 -26.0859375 12.25 Z " transform="translate(1736.0859375,903.75)" style="fill: #000000;"/><path d="M0 0 C1.74609375 1.1328125 1.74609375 1.1328125 3.375 2.375 C4.28958984 2.95894531 4.28958984 2.95894531 5.22265625 3.5546875 C11.73386902 8.22727755 14.4314838 15.77535851 16 23.421875 C16.35160701 26.19078017 16.50855556 28.83588801 16.5 31.625 C16.50386719 32.90117188 16.50386719 32.90117188 16.5078125 34.203125 C16.375 36.375 16.375 36.375 15.375 38.375 C-0.135 38.375 -15.645 38.375 -31.625 38.375 C-29.15493227 49.73625384 -29.15493227 49.73625384 -21.6875 56.421875 C-12.49233931 59.55658887 -3.85082118 58.96470419 5.375 56.375 C8.375 56.25 8.375 56.25 10.375 56.375 C11.63737731 58.89975462 11.47356404 60.68700466 11.4375 63.5 C11.42847656 64.41007813 11.41945313 65.32015625 11.41015625 66.2578125 C11.39855469 66.95648437 11.38695312 67.65515625 11.375 68.375 C-1.9248125 73.24751195 -16.21662313 73.9250452 -29.5 68.625 C-33.77026718 66.5482034 -36.59593982 64.02540585 -39.625 60.375 C-39.625 59.385 -39.625 58.395 -39.625 57.375 C-40.285 57.375 -40.945 57.375 -41.625 57.375 C-47.17680593 46.56880631 -47.56311346 32.38969393 -44.5 20.6875 C-41.16891365 11.92797665 -35.67334348 5.21742 -27.625 0.375 C-19.87613016 -2.90674516 -7.76961934 -3.6706863 0 0 Z M-28.625 17.375 C-29.615 20.675 -30.605 23.975 -31.625 27.375 C-20.735 27.375 -9.845 27.375 1.375 27.375 C1.62077384 19.10960009 1.62077384 19.10960009 -2.84375 13.8515625 C-6.2926707 10.99258876 -9.72246945 9.65341911 -14.1875 9 C-19.96163202 9.888328 -24.65855226 13.23226569 -28.625 17.375 Z " transform="translate(271.625,902.625)" style="fill: #000000;"/><path d="M0 0 C1.73828125 1.125 1.73828125 1.125 3.4375 2.4375 C4.13230469 2.911875 4.82710937 3.38625 5.54296875 3.875 C12.3790896 9.05501143 14.21057449 15.42755415 16.1875 23.5 C17.16477273 34.98295455 17.16477273 34.98295455 15.4375 38.4375 C-0.0725 38.4375 -15.5825 38.4375 -31.5625 38.4375 C-29.09243227 49.79875384 -29.09243227 49.79875384 -21.625 56.484375 C-12.96156667 59.43781818 -4.29348672 59.27322365 4.5 56.875 C6.4375 56.4375 6.4375 56.4375 10.4375 56.4375 C11.86008812 60.26070557 12.67792276 63.35031305 12.4375 67.4375 C0.35131822 73.92276827 -14.43724259 73.34905471 -27.29296875 69.65234375 C-32.67496738 67.56986187 -36.48133399 64.34319961 -39.5625 59.4375 C-39.5625 58.7775 -39.5625 58.1175 -39.5625 57.4375 C-40.2225 57.4375 -40.8825 57.4375 -41.5625 57.4375 C-47.10869762 46.64222249 -47.46862703 32.52002286 -44.5 20.8125 C-40.59904488 10.61968177 -34.14232449 4.42572071 -24.5625 -0.5625 C-17.74059016 -2.83646995 -6.66216522 -3.13041498 0 0 Z M-28.5625 17.4375 C-29.5525 20.7375 -30.5425 24.0375 -31.5625 27.4375 C-20.3425 27.4375 -9.1225 27.4375 2.4375 27.4375 C1.45294504 19.56106029 1.08021656 17.2091932 -4.5625 12.4375 C-13.69912175 6.77480256 -21.49675488 10.05772176 -28.5625 17.4375 Z " transform="translate(1294.5625,902.5625)" style="fill: #000000;"/><path d="M0 0 C0.79583496 -0.00612305 1.59166992 -0.01224609 2.41162109 -0.01855469 C10.20657974 0.1480252 15.83762087 2.62816523 21.6171875 7.90234375 C28.35453142 15.04113563 27.29272919 25.83228303 27.44140625 35 C27.46218735 36.07628662 27.48296844 37.15257324 27.50437927 38.26147461 C27.56937179 41.67425615 27.62852425 45.08710972 27.6875 48.5 C27.73073313 50.82422597 27.7743489 53.14844487 27.81835938 55.47265625 C27.92500114 61.14836509 28.02640803 66.82414585 28.125 72.5 C23.835 72.5 19.545 72.5 15.125 72.5 C14.795 70.85 14.465 69.2 14.125 67.5 C13.20267578 68.13228516 13.20267578 68.13228516 12.26171875 68.77734375 C11.45347656 69.32519531 10.64523437 69.87304688 9.8125 70.4375 C8.61173828 71.25541016 8.61173828 71.25541016 7.38671875 72.08984375 C3.13948859 74.73794407 -0.83637705 74.71481506 -5.6875 74.75 C-6.38681641 74.770625 -7.08613281 74.79125 -7.80664062 74.8125 C-13.87706418 74.8579288 -17.54817319 72.96103079 -22.5625 69.8125 C-27.42985837 64.94514163 -28.08244822 59.61782295 -28.3125 53 C-28.12672374 46.304314 -26.8885299 41.77292235 -22.33203125 36.82421875 C-11.75369394 27.06890997 -0.60518938 27.32644424 13.125 27.5 C11.85825287 22.39967604 10.60241359 17.53827314 6.12109375 14.30859375 C0.33118649 11.96317144 -6.58644177 12.75355749 -12.3125 14.9375 C-13.488125 15.453125 -14.66375 15.96875 -15.875 16.5 C-17.53172637 16.87966646 -19.19570245 17.23760976 -20.875 17.5 C-21.4095256 16.25579353 -21.92708611 15.00429064 -22.4375 13.75 C-22.72753906 13.05390625 -23.01757812 12.3578125 -23.31640625 11.640625 C-23.9913379 9.05417365 -24.04767809 7.91462831 -22.875 5.5 C-15.86385684 0.92227766 -8.15582777 0.03491501 0 0 Z M1.9609375 38.51171875 C-3.923525 38.85165782 -7.72046576 41.57952403 -11.875 45.5 C-14.32105705 49.16908557 -14.71446402 52.23618769 -13.875 56.5 C-11.33713313 59.6389406 -9.10515423 62.17611868 -4.9921875 62.7734375 C0.32175105 63.01413855 4.0191228 62.28094767 8.39453125 59.171875 C12.2758689 55.42195962 13.91467055 51.01694241 14.359375 45.6953125 C14.37305573 43.28066431 14.30591602 40.90718819 14.125 38.5 C10.06821686 38.42518228 6.01762695 38.48975112 1.9609375 38.51171875 Z " transform="translate(408.875,900.5)" style="fill: #000000;"/><path d="M0 0 C6.96706381 5.43170256 8.25299697 10.96115594 9.87890625 19.46484375 C10.27948912 23.43329285 10.3653988 27.36865496 10.390625 31.35546875 C10.4085762 32.42609558 10.4265274 33.49672241 10.44502258 34.59979248 C10.49858603 37.97143784 10.53284662 41.34294618 10.56640625 44.71484375 C10.59962703 47.02085219 10.63412098 49.32684267 10.66992188 51.6328125 C10.75428081 57.24338975 10.821347 62.85393018 10.87890625 68.46484375 C6.58890625 68.46484375 2.29890625 68.46484375 -2.12109375 68.46484375 C-2.45109375 66.81484375 -2.78109375 65.16484375 -3.12109375 63.46484375 C-3.91773437 63.97144531 -3.91773437 63.97144531 -4.73046875 64.48828125 C-5.436875 64.93429687 -6.14328125 65.3803125 -6.87109375 65.83984375 C-7.91523438 66.50113281 -7.91523438 66.50113281 -8.98046875 67.17578125 C-9.686875 67.60117187 -10.39328125 68.0265625 -11.12109375 68.46484375 C-11.69988281 68.83867188 -12.27867187 69.2125 -12.875 69.59765625 C-19.26228427 72.06370339 -28.8649974 71.82572505 -35.16796875 69.19140625 C-39.74699026 66.12376112 -43.29665989 63.27538335 -44.734375 57.7890625 C-45.98542804 50.27010735 -46.35941623 42.01497849 -42.12109375 35.46484375 C-35.13363473 28.00318591 -28.48736292 23.95769331 -18.12109375 23.46484375 C-13.45300359 23.39434401 -8.78923405 23.40583636 -4.12109375 23.46484375 C-5.38784088 18.36451979 -6.64368016 13.50311689 -11.125 10.2734375 C-16.91490726 7.92801519 -23.83253552 8.71840124 -29.55859375 10.90234375 C-30.73421875 11.41796875 -31.90984375 11.93359375 -33.12109375 12.46484375 C-34.77782012 12.84451021 -36.4417962 13.20245351 -38.12109375 13.46484375 C-38.65561935 12.22063728 -39.17317986 10.96913439 -39.68359375 9.71484375 C-39.97363281 9.01875 -40.26367188 8.32265625 -40.5625 7.60546875 C-41.23743165 5.0190174 -41.29377184 3.87947206 -40.12109375 1.46484375 C-29.33749793 -5.57599201 -11.064621 -6.94665771 0 0 Z M-28.84375 41.02734375 C-31.39966262 43.90372248 -31.50802057 46.63740663 -31.48046875 50.42578125 C-30.87786355 53.84491073 -28.75323308 55.39673427 -26.12109375 57.46484375 C-22.59942773 59.22567676 -18.96468207 58.98590437 -15.12109375 58.46484375 C-10.14973083 56.68002869 -7.00374806 53.99249122 -4.62109375 49.27734375 C-2.7329963 44.35835301 -2.73027318 39.66492862 -3.12109375 34.46484375 C-12.84019902 34.0926227 -21.45637438 34.07451964 -28.84375 41.02734375 Z " transform="translate(2313.12109375,904.53515625)" style="fill: #000000;"/><path d="M0 0 C23.43 0 46.86 0 71 0 C71 4.29 71 8.58 71 13 C61.43 13 51.86 13 42 13 C42 40.72 42 68.44 42 97 C37.71 97 33.42 97 29 97 C29 69.28 29 41.56 29 13 C19.43 13 9.86 13 0 13 C0 8.71 0 4.42 0 0 Z " transform="translate(770,876)" style="fill: #000000;"/><path d="M0 0 C-0.50797009 4.3177458 -1.19682779 8.03302114 -3 12 C-5.33299801 11.46161584 -7.4535347 10.82069558 -9.6875 9.9375 C-15.008931 8.43143462 -19.78486677 8.27669119 -25.0625 10 C-27.34618412 12.35735135 -27.29006548 13.01862392 -27.3125 16.1875 C-27.209375 17.445625 -27.10625 18.70375 -27 20 C-22.73049997 22.21381483 -18.60081482 24.15910404 -14.0625 25.75 C-7.7802332 28.23188318 -2.32802956 32.17432086 1.2265625 38.015625 C3.74618774 43.99679145 3.82541538 49.95702801 1.9375 56.125 C-0.51521517 61.95879449 -4.9421573 65.24475962 -10.65625 67.640625 C-15.22594154 69.27141489 -19.49329545 69.49609809 -24.3125 69.4375 C-25.14048096 69.43427734 -25.96846191 69.43105469 -26.8215332 69.42773438 C-33.42757439 69.27799314 -39.05862078 67.99071673 -45 65 C-44.71640113 63.5608866 -44.42278601 62.12374482 -44.125 60.6875 C-43.96257812 59.88699219 -43.80015625 59.08648438 -43.6328125 58.26171875 C-43 56 -43 56 -41 53 C-40.34515625 53.2165625 -39.6903125 53.433125 -39.015625 53.65625 C-30.33686022 56.30400875 -21.51171111 57.88443543 -13 54 C-12.43232948 50.84627489 -12.27470672 48.13779363 -13 45 C-17.67431449 39.80631723 -25.0025508 37.72905222 -31.32421875 35.21484375 C-36.52592731 32.85319213 -39.47859636 28.99364343 -42 24 C-42.3984375 20.66015625 -42.3984375 20.66015625 -42.375 17.0625 C-42.38273437 15.87785156 -42.39046875 14.69320312 -42.3984375 13.47265625 C-41.96767491 9.7182647 -40.87692707 7.25234717 -39 4 C-38.34 4 -37.68 4 -37 4 C-36.74347656 3.38640625 -36.48695312 2.7728125 -36.22265625 2.140625 C-34.40154061 -1.04778193 -32.36214226 -1.87235032 -29.02734375 -3.234375 C-19.15510784 -5.73109531 -8.83554228 -5.14067915 0 0 Z " transform="translate(1892,905)" style="fill: #000000;"/><path d="M0 0 C1.13405273 0.00737183 1.13405273 0.00737183 2.29101562 0.01489258 C7.67095963 0.1282341 11.99051621 0.47473896 16.6875 3.3125 C17.875 5.5 17.875 5.5 17.6875 8.3125 C16.85979069 11.0613124 15.84139239 13.68527608 14.6875 16.3125 C13.76130859 15.98765625 13.76130859 15.98765625 12.81640625 15.65625 C7.18435853 13.80461787 1.62800351 12.07538139 -4.3125 13.3125 C-7.5664921 15.23161456 -7.5664921 15.23161456 -9.3125 18.3125 C-9.56579784 21.45960302 -9.56579784 21.45960302 -8.3125 24.3125 C-5.25595294 27.12083558 -2.09479958 28.16645074 1.8125 29.4375 C9.83572092 32.44055451 16.67313313 36.89638802 20.3125 44.875 C21.08694535 51.97408233 21.3898237 57.99369312 17.6875 64.3125 C13.41188645 69.20680698 7.92853938 72.75087834 1.41064453 73.61401367 C-1.10927028 73.75097107 -3.60158572 73.77853465 -6.125 73.75 C-7.00704102 73.74677734 -7.88908203 73.74355469 -8.79785156 73.74023438 C-15.2441104 73.60211727 -20.67754817 72.63415581 -26.3125 69.3125 C-25.50892857 61.27678571 -25.50892857 61.27678571 -23.3125 57.3125 C-22.65765625 57.5290625 -22.0028125 57.745625 -21.328125 57.96875 C-14.0235985 60.19724961 -5.42496322 62.31378902 1.97265625 59.41796875 C3.84865981 58.41472229 3.84865981 58.41472229 4.6875 56.3125 C5.18781206 52.89678147 5.18781206 52.89678147 4.6875 49.3125 C0.56087481 45.27983971 -4.47635972 43.27048357 -9.69726562 41.04492188 C-15.94278342 38.27406779 -21.46153462 34.81929514 -24.3125 28.3125 C-24.7109375 24.97265625 -24.7109375 24.97265625 -24.6875 21.375 C-24.69523437 20.19035156 -24.70296875 19.00570312 -24.7109375 17.78515625 C-24.17376712 13.10334775 -22.8351438 9.80328932 -19.4453125 6.484375 C-18.45144531 5.78054688 -18.45144531 5.78054688 -17.4375 5.0625 C-16.78007812 4.58296875 -16.12265625 4.1034375 -15.4453125 3.609375 C-10.34938763 0.51075401 -5.90287985 -0.04454273 0 0 Z " transform="translate(2742.3125,900.6875)" style="fill: #000000;"/><path d="M0 0 C-0.54855348 4.571279 -1.41744803 8.67435795 -3 13 C-3.53109375 12.85949219 -4.0621875 12.71898437 -4.609375 12.57421875 C-14.92008328 10.09762706 -22.66507799 8.99744029 -32.25 14.0625 C-37.55778165 17.62882873 -39.19527833 22.4402243 -40.5625 28.48828125 C-41.65969562 35.83720606 -39.76368048 41.22068469 -36.6875 47.8125 C-32.28583645 53.51836016 -26.94957268 54.83729813 -20.10546875 55.83203125 C-16.23850672 56.04118769 -12.96395988 55.4585132 -9.25390625 54.41015625 C-6.58104966 53.9237612 -4.61247465 54.33190684 -2 55 C-0.82428549 58.67410785 -0.92633254 62.16929183 -1 66 C-12.94316784 70.65581119 -25.69937054 71.52782497 -37.83203125 66.92578125 C-42.67543285 64.67781887 -46.10546736 62.60981124 -49 58 C-49.41894531 57.37867188 -49.83789062 56.75734375 -50.26953125 56.1171875 C-57.22250069 45.57752777 -57.83553371 33.04577393 -55.34765625 20.78515625 C-54.43675261 18.31046952 -53.4006238 16.23185454 -52 14 C-51.51402344 13.21496094 -51.02804688 12.42992187 -50.52734375 11.62109375 C-44.04492515 2.31889968 -35.5633421 -1.58111554 -24.59765625 -3.59765625 C-15.86047237 -4.57477888 -8.00315188 -3.60926458 0 0 Z " transform="translate(2176,905)" style="fill: #000000;"/><path d="M0 0 C0 6.27 0 12.54 0 19 C5.94 19 11.88 19 18 19 C18 23.29 18 27.58 18 32 C12.06 32 6.12 32 0 32 C0.09738475 36.83848449 0.20038953 41.67620032 0.31738281 46.51416016 C0.35546062 48.15699175 0.39034888 49.79990071 0.421875 51.44287109 C0.46799015 53.8163604 0.52590261 56.1893267 0.5859375 58.5625 C0.59748871 59.28679199 0.60903992 60.01108398 0.62094116 60.75732422 C0.84292501 69.6115741 0.84292501 69.6115741 5 77 C7.89883083 77.24339551 7.89883083 77.24339551 11.125 77.125 C12.22070312 77.10695313 13.31640625 77.08890625 14.4453125 77.0703125 C15.28835938 77.04710937 16.13140625 77.02390625 17 77 C17.02685938 79.14576637 17.04633088 81.29162645 17.0625 83.4375 C17.07410156 84.63246094 17.08570313 85.82742188 17.09765625 87.05859375 C17 90 17 90 16 91 C-2.68249183 92.36084748 -2.68249183 92.36084748 -8.65625 87.5546875 C-14.47731982 80.81984509 -14.14759468 71.82298339 -14.09765625 63.4453125 C-14.0962413 62.54376434 -14.09482635 61.64221619 -14.09336853 60.71334839 C-14.0877974 57.850531 -14.07525026 54.98779352 -14.0625 52.125 C-14.05748127 50.17708447 -14.05291901 48.2291677 -14.04882812 46.28125 C-14.03783742 41.52080282 -14.02059277 36.76041493 -14 32 C-17.3 32 -20.6 32 -24 32 C-24.02686553 30.02090602 -24.04633375 28.04171029 -24.0625 26.0625 C-24.07410156 24.96035156 -24.08570313 23.85820313 -24.09765625 22.72265625 C-24 20 -24 20 -23 19 C-21.48071962 18.92820036 -19.95832518 18.91607993 -18.4375 18.9375 C-17.61121094 18.94652344 -16.78492188 18.95554687 -15.93359375 18.96484375 C-14.97646484 18.98224609 -14.97646484 18.98224609 -14 19 C-14.01160156 18.01257813 -14.02320313 17.02515625 -14.03515625 16.0078125 C-14.04417969 14.72648438 -14.05320312 13.44515625 -14.0625 12.125 C-14.07410156 10.84882812 -14.08570313 9.57265625 -14.09765625 8.2578125 C-14 5 -14 5 -13 3 C-10.8203125 2.1484375 -10.8203125 2.1484375 -8.125 1.375 C-7.24070312 1.11460937 -6.35640625 0.85421875 -5.4453125 0.5859375 C-3 0 -3 0 0 0 Z " transform="translate(2010,883)" style="fill: #000000;"/><path d="M0 0 C4.62 0 9.24 0 14 0 C14 33.66 14 67.32 14 102 C9.38 102 4.76 102 0 102 C0 68.34 0 34.68 0 0 Z " transform="translate(540,871)" style="fill: #000000;"/><path d="M0 0 C0 4.95 0 9.9 0 15 C-2.2584375 15.12375 -2.2584375 15.12375 -4.5625 15.25 C-9.78975527 15.80530332 -12.86063814 16.70540587 -17 20 C-21.18118036 27.09720652 -21.14318893 35.76347217 -21.31640625 43.77734375 C-21.33718735 44.58869278 -21.35796844 45.40004181 -21.37937927 46.23597717 C-21.44425643 48.80307339 -21.50346922 51.37026337 -21.5625 53.9375 C-21.60574418 55.68816036 -21.64936026 57.43881158 -21.69335938 59.18945312 C-21.7998735 63.45954171 -21.90131114 67.72972368 -22 72 C-26.62 72 -31.24 72 -36 72 C-36.33 48.9 -36.66 25.8 -37 2 C-32.71 2 -28.42 2 -24 2 C-23.34 4.31 -22.68 6.62 -22 9 C-21.29875 8.071875 -20.5975 7.14375 -19.875 6.1875 C-14.36615186 -0.41066839 -8.11394371 -1.35232395 0 0 Z " transform="translate(2462,901)" style="fill: #000000;"/><path d="M0 0 C4.62 0 9.24 0 14 0 C14 23.1 14 46.2 14 70 C9.38 70 4.76 70 0 70 C0 46.9 0 23.8 0 0 Z " transform="translate(933,903)" style="fill: #000000;"/><path d="M0 0 C11.88 0 23.76 0 36 0 C36 3.63 36 7.26 36 11 C24.12 11 12.24 11 0 11 C0 7.37 0 3.74 0 0 Z " transform="translate(652,929)" style="fill: #000000;"/><path d="M0 0 C2.25 1.21875 2.25 1.21875 4 3 C5.00275122 7.41652926 4.7380169 11.65231697 2.5625 15.625 C-1.28676095 17.69045709 -4.73179162 17.74399963 -9 17 C-11.5625 15.5625 -11.5625 15.5625 -13 13 C-13.74831272 8.70704811 -13.7145847 5.27382489 -11.5625 1.4375 C-7.82901891 -0.65689183 -4.18646105 -0.81812883 0 0 Z " transform="translate(945,876)" style="fill: #000000;"/></svg>