<svg width="162" height="45" viewBox="0 0 162 45" fill="none" xmlns="http://www.w3.org/2000/svg">
<path d="M60.7178 37.1705C60.9302 37.2769 61.0857 37.4141 61.2525 37.6047C61.3278 37.6897 61.3278 37.6897 61.4047 37.7765C61.4329 37.8153 61.4611 37.8541 61.4901 37.8941C61.5526 37.8135 61.5526 37.8135 61.6164 37.7313C62.0493 37.227 62.4062 37.1304 62.9905 37.1457C63.3904 37.1904 63.5806 37.401 63.8554 37.7358C64.1672 38.2891 64.1886 38.7717 64.181 39.4248C64.1808 39.5074 64.1805 39.5901 64.1803 39.6753C64.1793 39.9378 64.177 40.2001 64.1748 40.4625C64.1739 40.6412 64.173 40.8198 64.1723 40.9984C64.1704 41.4348 64.1673 41.8711 64.1636 42.3075C63.8891 42.3075 63.6147 42.3075 63.3319 42.3075C63.3304 42.2097 63.3289 42.1119 63.3274 42.0112C63.3217 41.6466 63.3158 41.282 63.3097 40.9174C63.3072 40.7599 63.3047 40.6024 63.3023 40.445C63.2989 40.2179 63.2951 39.9909 63.2913 39.7639C63.2903 39.6941 63.2893 39.6243 63.2882 39.5524C63.2813 39.1636 63.2679 38.784 63.213 38.4005C63.1091 38.292 63.1091 38.292 62.9754 38.2558C62.9399 38.229 62.9043 38.2021 62.8677 38.1744C62.6747 38.0804 62.5281 38.0851 62.3219 38.1111C62.0363 38.2884 61.8818 38.4942 61.7278 38.8346C61.6462 39.1861 61.655 39.5498 61.6496 39.9123C61.6483 39.9808 61.6471 40.0494 61.6458 40.12C61.642 40.3382 61.6384 40.5564 61.6349 40.7746C61.6324 40.9228 61.6298 41.071 61.6272 41.2193C61.6208 41.582 61.6148 41.9448 61.609 42.3075C61.3541 42.3075 61.0992 42.3075 60.8366 42.3075C60.8348 42.1564 60.8348 42.1564 60.833 42.0022C60.8285 41.6277 60.8232 41.2531 60.8178 40.8785C60.8155 40.7165 60.8134 40.5546 60.8116 40.3926C60.8088 40.1595 60.8054 39.9264 60.8018 39.6932C60.8011 39.6211 60.8004 39.549 60.7997 39.4746C60.7935 39.117 60.7837 38.8038 60.6584 38.4729C60.6192 38.449 60.58 38.4251 60.5396 38.4005C60.5396 38.3528 60.5396 38.305 60.5396 38.2558C60.294 38.1108 60.0984 38.0816 59.8266 38.1111C59.6645 38.2091 59.6645 38.2091 59.5296 38.3282C59.4708 38.352 59.4119 38.3759 59.3513 38.4005C59.2821 38.5597 59.2821 38.5597 59.2325 38.7623C59.2123 38.8354 59.192 38.9085 59.1712 38.9839C59.0944 39.3147 59.0928 39.6411 59.0891 39.9829C59.088 40.0497 59.0868 40.1164 59.0856 40.1852C59.0821 40.3967 59.0793 40.6082 59.0766 40.8198C59.0743 40.9639 59.072 41.108 59.0696 41.2521C59.0639 41.6039 59.0589 41.9557 59.0543 42.3075C58.7994 42.3075 58.5445 42.3075 58.282 42.3075C58.282 40.6601 58.282 39.0126 58.282 37.3152C58.5172 37.3152 58.7525 37.3152 58.9949 37.3152C59.0543 37.3876 59.0543 37.3876 59.058 37.573C59.0568 37.6312 59.0556 37.6894 59.0543 37.7494C59.0958 37.7136 59.1373 37.6779 59.1801 37.6411C59.2341 37.5948 59.2882 37.5484 59.3439 37.5007C59.3977 37.4545 59.4514 37.4083 59.5068 37.3608C59.8519 37.0735 60.3116 37.0987 60.7178 37.1705Z" fill="black"/>
<path d="M3.10073 35.6978C3.46945 36.1281 3.61863 36.5268 3.64262 37.1434C3.63342 37.6823 3.54579 38.1355 3.22512 38.5232C3.06488 38.6834 2.90286 38.8348 2.7329 38.9793C2.77578 39.0256 2.81867 39.0719 2.86286 39.1195C3.22523 39.565 3.37659 40.1169 3.48667 40.7158C3.4985 40.7764 3.51033 40.837 3.52252 40.8995C3.59037 41.2495 3.65367 41.6007 3.71591 41.9523C3.74397 42.1051 3.74397 42.1051 3.80229 42.3075C3.50821 42.3075 3.21412 42.3075 2.91113 42.3075C2.76027 41.7819 2.61913 41.278 2.5323 40.7315C2.45055 40.2254 2.36908 39.8721 2.00836 39.5604C1.58479 39.2657 1.58282 39.3983 0.831751 39.3411C0.831751 40.32 0.831751 41.2989 0.831751 42.3075C0.557273 42.3075 0.282795 42.3075 0 42.3075C0 40.0154 0 37.7233 0 35.3618C2.44924 35.1024 2.44924 35.1024 3.10073 35.6978ZM0.831751 36.1576C0.831751 36.9455 0.831751 37.7335 0.831751 38.5452C1.37969 38.5579 1.37969 38.5579 1.90114 38.4819C1.95261 38.4702 2.00407 38.4584 2.0571 38.4463C2.37174 38.3442 2.51154 38.1899 2.67395 37.8514C2.8017 37.4735 2.7905 37.0944 2.68648 36.7093C2.56231 36.4155 2.428 36.2685 2.17221 36.1576C1.75201 36.0374 1.24446 35.9901 0.831751 36.1576Z" fill="black"/>
<path d="M89.5914 37.46C89.6429 37.4988 89.6944 37.5376 89.7474 37.5775C90.2664 38.2096 90.3853 38.8988 90.386 39.7571C90.3875 39.8398 90.389 39.9224 90.3904 40.0075C90.3919 40.5284 90.3412 40.9146 90.1261 41.367C90.0967 41.4299 90.0673 41.4929 90.037 41.5577C89.7425 42.048 89.3778 42.3743 88.8768 42.4769C88.747 42.4941 88.6191 42.5025 88.4886 42.5065C88.4487 42.5085 88.4088 42.5105 88.3677 42.5126C87.9283 42.5028 87.7686 42.307 87.3338 42.0181C87.3142 42.7822 87.2946 43.5462 87.2744 44.3334C86.9999 44.3334 86.7254 44.3334 86.4427 44.3334C86.423 42.0174 86.4034 39.7014 86.3832 37.3153C86.6577 37.3153 86.9322 37.3153 87.215 37.3153C87.2346 37.4824 87.2542 37.6495 87.2744 37.8217C87.2996 37.7929 87.3248 37.7641 87.3508 37.7344C88.0004 37.0198 88.8432 36.8927 89.5914 37.46ZM87.5385 38.502C87.1928 38.9673 87.2603 39.6957 87.2744 40.2817C87.2747 40.335 87.275 40.3884 87.2753 40.4433C87.2941 40.8654 87.4455 41.0922 87.6903 41.367C87.9397 41.6132 88.2064 41.6734 88.522 41.6564C88.8089 41.5911 89.0296 41.4823 89.2287 41.2169C89.5251 40.6715 89.6429 40.0473 89.558 39.3999C89.454 38.9044 89.299 38.4739 88.9416 38.1835C88.3893 37.8214 87.986 38.0268 87.5385 38.502Z" fill="black"/>
<path d="M150.547 35C150.802 35 151.057 35 151.319 35C151.339 37.4115 151.358 39.823 151.379 42.3075C151.124 42.3075 150.869 42.3075 150.606 42.3075C150.577 42.0568 150.577 42.0568 150.547 41.8011C150.52 41.8414 150.493 41.8816 150.465 41.9232C150.028 42.3921 149.575 42.5311 149.001 42.4912C148.517 42.4293 148.124 42.1591 147.81 41.7106C147.48 41.182 147.428 40.5264 147.435 39.8837C147.435 39.8206 147.434 39.7575 147.433 39.6924C147.436 38.9655 147.592 38.3005 147.992 37.7494C148.51 37.2296 149.001 37.1002 149.658 37.1517C149.98 37.2039 150.261 37.4012 150.487 37.677C150.507 36.7936 150.527 35.9102 150.547 35ZM148.658 38.3788C148.318 38.8836 148.179 39.4922 148.23 40.137C148.341 40.7115 148.536 41.1686 148.943 41.5117C149.23 41.6284 149.548 41.6547 149.838 41.532C150.21 41.2892 150.396 40.9522 150.515 40.4736C150.618 39.856 150.59 39.1926 150.369 38.6176C150.138 38.2708 149.906 38.0789 149.552 37.9709C149.204 37.9341 148.91 38.0887 148.658 38.3788Z" fill="black"/>
<path d="M98.9834 37.3695C99.0209 37.3994 99.0585 37.4292 99.0971 37.46C99.1383 37.4898 99.1795 37.5197 99.222 37.5504C99.6058 37.8585 99.8438 38.3066 99.9883 38.8346C100.005 39.1524 100.005 39.4705 100.007 39.7888C100.009 39.9198 100.009 39.9198 100.012 40.0535C100.015 40.5663 99.9882 40.9379 99.7507 41.367C99.7199 41.4284 99.6891 41.4899 99.6574 41.5532C99.3577 42.0492 98.9974 42.3205 98.503 42.4522C97.7398 42.5016 97.1762 42.4465 96.5425 41.8734C96.3928 41.6797 96.3642 41.6353 96.3642 41.367C96.325 41.367 96.2858 41.367 96.2454 41.367C96.0338 40.8654 95.9835 40.3935 95.9818 39.8385C95.9812 39.7782 95.9806 39.7178 95.98 39.6556C95.9877 38.9613 96.166 38.3484 96.5425 37.8217C97.1745 37.155 98.2093 36.8453 98.9834 37.3695ZM97.4336 38.1835C97.3724 38.2342 97.3111 38.285 97.248 38.3372C97.0244 38.5682 96.9669 38.8594 96.8989 39.1964C96.8855 39.2591 96.872 39.3218 96.8581 39.3863C96.7968 39.9532 96.8541 40.5657 97.0811 41.075C97.2794 41.3882 97.5388 41.6106 97.8574 41.6866C98.224 41.7154 98.5196 41.5819 98.8001 41.2946C99.182 40.6722 99.2026 40.0215 99.1565 39.2688C99.0491 38.7637 98.8128 38.342 98.4585 38.0478C98.0896 37.8923 97.7502 37.8813 97.4336 38.1835Z" fill="black"/>
<path d="M133.266 37.4314C133.321 37.4814 133.321 37.4814 133.377 37.5323C133.464 37.6039 133.464 37.6039 133.552 37.677C134.007 38.4828 133.885 39.6993 133.893 40.6299C133.895 40.7929 133.897 40.9559 133.899 41.119C133.904 41.5151 133.908 41.9113 133.912 42.3075C133.657 42.3075 133.402 42.3075 133.14 42.3075C133.12 42.1882 133.1 42.0688 133.08 41.9458C133.033 41.9824 133.033 41.9824 132.984 42.0198C132.943 42.0521 132.901 42.0844 132.857 42.1176C132.795 42.1655 132.795 42.1655 132.732 42.2143C132.69 42.245 132.648 42.2758 132.605 42.3075C132.57 42.3346 132.536 42.3616 132.501 42.3895C132.121 42.5679 131.551 42.5507 131.176 42.3601C130.902 42.136 130.694 41.9306 130.608 41.53C130.541 41.0567 130.522 40.5047 130.681 40.0561C130.966 39.5819 131.449 39.255 131.918 39.1512C132.284 39.1023 132.653 39.1184 133.021 39.1241C132.989 38.7703 132.941 38.4749 132.731 38.2151C132.441 37.9497 132.119 37.9806 131.773 38.0388C131.605 38.0955 131.459 38.1698 131.298 38.2558C131.2 38.2797 131.102 38.3036 131.001 38.3282C130.942 38.0894 130.883 37.8507 130.822 37.6047C130.916 37.5455 131.011 37.4868 131.105 37.4283C131.157 37.3956 131.209 37.3628 131.263 37.3291C131.836 37.0068 132.733 37.0222 133.266 37.4314ZM131.552 40.3224C131.387 40.5484 131.394 40.768 131.395 41.0586C131.429 41.3181 131.547 41.4298 131.714 41.584C131.923 41.7114 132.139 41.6941 132.367 41.6564C132.66 41.5282 132.849 41.334 132.991 40.9962C133.11 40.6181 133.102 40.2469 133.08 39.8476C132.503 39.8206 131.991 39.8193 131.552 40.3224Z" fill="black"/>
<path d="M20.0994 37.1525C20.1487 37.151 20.198 37.1495 20.2488 37.1479C20.7642 37.144 21.0884 37.3405 21.4673 37.7672C21.8288 38.2313 21.755 39.0506 21.7632 39.6509C21.7644 39.7271 21.7656 39.8034 21.7669 39.882C21.7708 40.1237 21.7743 40.3655 21.7778 40.6073C21.7803 40.7719 21.7829 40.9366 21.7856 41.1013C21.7919 41.5034 21.7979 41.9054 21.8038 42.3075C21.5489 42.3075 21.294 42.3075 21.0314 42.3075C21.0118 42.1881 20.9922 42.0688 20.972 41.9458C20.9172 41.9915 20.9172 41.9915 20.8613 42.0382C20.8133 42.0778 20.7653 42.1175 20.7158 42.1583C20.6445 42.2175 20.6445 42.2175 20.5717 42.2779C20.3194 42.4694 20.0832 42.4678 19.7949 42.4703C19.7534 42.4718 19.7118 42.4733 19.669 42.4748C19.3084 42.4781 19.0903 42.3409 18.7924 42.1131C18.5132 41.7731 18.4652 41.3959 18.4508 40.9328C18.4623 40.4668 18.546 40.1432 18.8061 39.7984C19.4354 39.0934 20.0964 39.1115 20.9126 39.1241C20.881 38.7702 20.8332 38.4749 20.623 38.2151C20.333 37.9497 20.0106 37.9806 19.665 38.0388C19.4965 38.0955 19.3507 38.1698 19.1897 38.2558C19.0917 38.2797 18.9936 38.3036 18.8926 38.3282C18.8338 38.0894 18.775 37.8507 18.7144 37.6047C18.8083 37.5455 18.9024 37.4868 18.9966 37.4283C19.049 37.3956 19.1014 37.3628 19.1553 37.3291C19.4682 37.153 19.76 37.155 20.0994 37.1525ZM20.2493 39.8484C19.8997 39.873 19.6742 40.0704 19.4273 40.354C19.2688 40.6436 19.259 40.8817 19.3085 41.2223C19.458 41.4522 19.5911 41.6328 19.8363 41.6761C20.152 41.6936 20.3718 41.6407 20.6316 41.4153C20.8683 41.1374 20.9609 40.8189 20.9859 40.4244C20.9868 40.2311 20.9827 40.0404 20.972 39.8476C20.731 39.8422 20.4904 39.8468 20.2493 39.8484Z" fill="black"/>
<path d="M71.9724 37.1479C72.0371 37.1462 72.0371 37.1462 72.103 37.1444C72.5784 37.1439 72.9559 37.3712 73.3129 37.7494C73.6776 38.3203 73.768 39.1447 73.7288 39.8476C73.6994 39.9192 73.6994 39.9192 73.6694 39.9923C72.7479 39.9923 71.8264 39.9923 70.8771 39.9923C70.9959 40.7262 70.9959 40.7262 71.3523 41.2946C71.8996 41.6384 72.5032 41.5625 73.0753 41.3669C73.2535 41.3579 73.2535 41.3579 73.3723 41.3669C73.4712 41.6715 73.495 41.8465 73.4317 42.1628C72.64 42.516 71.7959 42.5593 71.0033 42.1854C70.7424 42.0321 70.5557 41.8101 70.4018 41.5116C70.4018 41.4639 70.4018 41.4161 70.4018 41.3669C70.3626 41.3669 70.3233 41.3669 70.2829 41.3669C69.9634 40.5939 69.9329 39.6246 70.1121 38.7894C70.3085 38.1529 70.6352 37.6666 71.1147 37.3152C71.4043 37.1651 71.663 37.1463 71.9724 37.1479ZM71.0553 38.4729C70.9671 38.8668 70.9671 38.8668 70.8771 39.2687C71.5436 39.2687 72.2102 39.2687 72.897 39.2687C72.8411 38.5625 72.8411 38.5625 72.4811 38.1111C71.941 37.7049 71.4702 37.9339 71.0553 38.4729Z" fill="black"/>
<path d="M11.975 37.2836C12.0783 37.365 12.0783 37.365 12.1792 37.4599C12.2205 37.4943 12.2618 37.5286 12.3043 37.564C12.7111 37.9393 12.8212 38.4025 12.9367 38.9884C12.9912 39.7511 12.9912 39.7511 12.8921 39.9923C11.9707 39.9923 11.0492 39.9923 10.0998 39.9923C10.218 40.7707 10.218 40.7707 10.5751 41.2946C11.1153 41.6471 11.7302 41.5611 12.298 41.3669C12.4763 41.3579 12.4763 41.3579 12.5951 41.3669C12.6666 41.541 12.6605 41.6527 12.6582 41.8463C12.6577 41.9054 12.6571 41.9645 12.6566 42.0255C12.6559 42.0708 12.6552 42.1161 12.6545 42.1628C11.8644 42.5153 11.0153 42.5644 10.2261 42.1809C9.97239 42.0306 9.80452 41.8481 9.62456 41.584C9.62456 41.5124 9.62456 41.4407 9.62456 41.3669C9.58535 41.3669 9.54613 41.3669 9.50574 41.3669C9.18723 40.5964 9.15426 39.6266 9.33493 38.7939C9.38506 38.632 9.38506 38.632 9.44632 38.4729C9.47022 38.4107 9.49411 38.3485 9.51873 38.2844C9.75054 37.7535 10.0476 37.4603 10.5013 37.2333C10.9388 37.0908 11.5564 37.0465 11.975 37.2836ZM10.2781 38.4729C10.1899 38.8668 10.1899 38.8668 10.0998 39.2687C10.7468 39.2687 11.3938 39.2687 12.0604 39.2687C12.0847 38.619 12.0847 38.619 11.8098 38.2154C11.6035 38.0121 11.4005 37.9141 11.1358 37.8669C10.7936 37.931 10.5106 38.1708 10.2781 38.4729Z" fill="black"/>
<path d="M41.5875 35.3618C42.9795 35.3618 44.3715 35.3618 45.8057 35.3618C45.8057 35.6483 45.8057 35.9348 45.8057 36.23C45.2371 36.23 44.6686 36.23 44.0828 36.23C44.0828 38.2356 44.0828 40.2412 44.0828 42.3075C43.8279 42.3075 43.573 42.3075 43.3105 42.3075C43.3105 40.3019 43.3105 38.2963 43.3105 36.23C42.7419 36.23 42.1733 36.23 41.5875 36.23C41.5875 35.9435 41.5875 35.657 41.5875 35.3618Z" fill="black"/>
<path d="M107.166 37.1389C107.237 37.1392 107.237 37.1392 107.309 37.1396C107.671 37.1501 107.932 37.2328 108.246 37.46C108.228 37.5655 108.209 37.671 108.191 37.7765C108.18 37.8353 108.17 37.894 108.159 37.9545C108.128 38.1111 108.128 38.1111 108.068 38.2558C107.93 38.2169 107.804 38.1705 107.671 38.1066C107.355 37.9977 107.072 37.9893 106.757 38.1066C106.598 38.3139 106.607 38.4747 106.603 38.751C106.632 38.9216 106.632 38.9216 106.77 39.0254C106.949 39.1294 107.127 39.212 107.314 39.2914C107.728 39.4821 108.064 39.6791 108.302 40.146C108.453 40.6417 108.481 41.0917 108.312 41.5897C108.125 41.9858 107.831 42.1868 107.488 42.3362C107.26 42.4115 107.037 42.415 106.802 42.4115C106.753 42.4113 106.704 42.4111 106.653 42.4108C106.26 42.4 105.926 42.3069 105.573 42.0905C105.598 41.9711 105.624 41.8521 105.651 41.7332C105.665 41.6669 105.68 41.6006 105.695 41.5323C105.713 41.4777 105.732 41.4232 105.751 41.3669C105.955 41.2844 105.976 41.303 106.163 41.3986C106.595 41.5862 107.055 41.6009 107.474 41.3669C107.507 41.1155 107.518 40.8937 107.474 40.6434C107.203 40.263 106.759 40.1163 106.385 39.9355C106.075 39.7641 105.903 39.4849 105.751 39.124C105.704 38.7132 105.687 38.2643 105.851 37.8895C106.208 37.3383 106.603 37.1303 107.166 37.1389Z" fill="black"/>
<path d="M159.577 37.261C159.756 37.3876 159.756 37.3876 159.802 37.521C159.818 37.7074 159.788 37.8125 159.73 37.9845C159.704 38.0612 159.704 38.0612 159.678 38.1394C159.664 38.1778 159.651 38.2162 159.637 38.2558C159.582 38.2323 159.582 38.2323 159.526 38.2083C159.191 38.0742 158.861 37.95 158.508 38.0388C158.313 38.1731 158.313 38.1731 158.211 38.4005C158.196 38.6638 158.196 38.6638 158.27 38.907C158.437 39.093 158.599 39.1702 158.812 39.2507C159.237 39.4322 159.629 39.6821 159.878 40.1505C159.896 40.2177 159.915 40.2848 159.934 40.354C159.954 40.4234 159.954 40.4234 159.975 40.4942C160.03 40.9429 160.001 41.3342 159.815 41.7287C159.561 42.083 159.235 42.3393 158.848 42.4017C158.698 42.4116 158.55 42.4136 158.4 42.4115C158.348 42.4113 158.295 42.4111 158.241 42.4108C157.858 42.4008 157.536 42.3308 157.201 42.0905C157.245 41.5388 157.245 41.5388 157.379 41.2946C157.832 41.4303 157.832 41.4303 158.033 41.5117C158.15 41.5203 158.268 41.5243 158.385 41.5252C158.478 41.5268 158.478 41.5268 158.573 41.5283C158.744 41.5118 158.841 41.4817 158.983 41.367C159.076 41.1402 159.093 40.8871 159.043 40.6434C158.8 40.3498 158.498 40.206 158.188 40.0453C157.816 39.8441 157.492 39.5947 157.32 39.124C157.274 38.7235 157.256 38.2703 157.405 37.8986C157.93 37.1343 158.81 36.9467 159.577 37.261Z" fill="black"/>
<path d="M125.119 37.4599C125.101 37.564 125.082 37.668 125.063 37.772C125.053 37.8299 125.043 37.8878 125.032 37.9475C125 38.1111 125 38.1111 124.941 38.3282C124.909 38.318 124.878 38.3078 124.845 38.2974C124.233 38.1182 123.773 38.0386 123.203 38.405C122.883 38.6677 122.785 39.0183 122.709 39.4649C122.648 40.0233 122.748 40.4185 122.939 40.9193C123.202 41.3337 123.52 41.4277 123.929 41.4992C124.145 41.5141 124.322 41.476 124.53 41.4042C124.669 41.3586 124.798 41.3557 124.941 41.3669C125.048 41.644 125.071 41.8576 125.06 42.1628C124.35 42.4997 123.592 42.5628 122.871 42.2298C122.584 42.0671 122.38 41.9175 122.208 41.584C122.183 41.539 122.158 41.4941 122.133 41.4478C121.746 40.7351 121.733 40.0284 121.792 39.1964C121.905 38.5326 122.256 37.9512 122.717 37.5775C123.464 37.0827 124.346 37.0356 125.119 37.4599Z" fill="black"/>
<path d="M115.257 35.8682C115.257 36.3219 115.257 36.7755 115.257 37.2429C115.61 37.2429 115.963 37.2429 116.326 37.2429C116.326 37.5294 116.326 37.8159 116.326 38.1111C115.973 38.1111 115.62 38.1111 115.257 38.1111C115.263 38.4599 115.269 38.8086 115.276 39.1573C115.278 39.2756 115.28 39.394 115.282 39.5124C115.286 40.4159 115.286 40.4159 115.435 41.2946C115.638 41.4596 115.713 41.4552 115.951 41.4484C116.01 41.447 116.069 41.4457 116.13 41.4444C116.175 41.4427 116.22 41.441 116.267 41.4393C116.268 41.5825 116.27 41.7257 116.271 41.8689C116.271 41.9486 116.272 42.0284 116.273 42.1105C116.267 42.3075 116.267 42.3075 116.207 42.3799C115.098 42.4783 115.098 42.4783 114.743 42.1306C114.397 41.6433 114.416 40.9924 114.419 40.3863C114.419 40.321 114.419 40.2558 114.42 40.1886C114.42 39.9815 114.421 39.7743 114.421 39.5672C114.422 39.4263 114.422 39.2853 114.422 39.1444C114.423 38.8 114.424 38.4556 114.425 38.1111C114.229 38.1111 114.033 38.1111 113.831 38.1111C113.831 37.8246 113.831 37.5381 113.831 37.2429C114.027 37.2429 114.223 37.2429 114.425 37.2429C114.425 36.8848 114.425 36.5266 114.425 36.1576C115.055 35.8682 115.055 35.8682 115.257 35.8682Z" fill="black"/>
<path d="M27.9231 35C28.1975 35 28.472 35 28.7548 35C28.7548 37.4115 28.7548 39.823 28.7548 42.3075C28.4803 42.3075 28.2059 42.3075 27.9231 42.3075C27.9231 39.896 27.9231 37.4846 27.9231 35Z" fill="black"/>
<path d="M142.111 37.1706C142.111 37.5048 142.111 37.8391 142.111 38.1835C141.976 38.1924 141.976 38.1924 141.839 38.2016C141.529 38.2417 141.346 38.3069 141.101 38.5452C140.852 39.0587 140.854 39.6858 140.844 40.2656C140.843 40.3243 140.842 40.383 140.84 40.4435C140.837 40.6292 140.833 40.8149 140.83 41.0007C140.827 41.1273 140.824 41.254 140.822 41.3807C140.815 41.6896 140.809 41.9986 140.804 42.3075C140.529 42.3075 140.255 42.3075 139.972 42.3075C139.952 40.6601 139.933 39.0126 139.912 37.3153C140.167 37.3153 140.422 37.3153 140.685 37.3153C140.724 37.4824 140.763 37.6495 140.804 37.8217C140.845 37.7546 140.887 37.6874 140.93 37.6182C141.257 37.1408 141.628 37.0727 142.111 37.1706Z" fill="black"/>
<path d="M51.2715 37.3153C51.546 37.3153 51.8204 37.3153 52.1032 37.3153C52.1032 38.9627 52.1032 40.6102 52.1032 42.3075C51.8288 42.3075 51.5543 42.3075 51.2715 42.3075C51.2715 40.6601 51.2715 39.0126 51.2715 37.3153Z" fill="black"/>
<path d="M34.5771 39.1964C35.2829 39.1964 35.9887 39.1964 36.7159 39.1964C36.7159 39.4352 36.7159 39.6739 36.7159 39.9199C36.0101 39.9199 35.3043 39.9199 34.5771 39.9199C34.5771 39.6812 34.5771 39.4424 34.5771 39.1964Z" fill="black"/>
<path d="M52.1367 35.4296C52.2794 35.6789 52.2633 35.9375 52.2221 36.23C52.1367 36.4154 52.1367 36.4154 51.9844 36.5194C51.7294 36.5735 51.5254 36.5711 51.2975 36.4154C51.1702 36.139 51.1664 35.8881 51.2121 35.5788C51.4094 35.2341 51.8443 35.2993 52.1367 35.4296Z" fill="black"/>
<path d="M90.0677 8.47385H94.8585V16.2881C94.8585 16.5781 95.443 17.8435 95.7151 18.0826C96.5487 18.8132 98.3826 18.8226 99.2622 18.1673C99.5401 17.9602 100.224 16.7231 100.224 16.4764V8.47385H105.015V17.4179C105.015 18.3726 104.191 20.1218 103.463 20.7884C100.544 23.4679 90.8304 23.3059 90.2574 18.0769C89.5503 18.6644 89.1996 19.621 88.5423 20.2499C84.5103 24.1024 75.5323 22.854 74.21 16.9942C73.8976 15.6065 74.1928 14.52 74.0663 13.1831L65.4428 29H60.3645C61.384 25.7481 63.8177 22.967 64.774 19.6944L58.4482 8.47574H64.0055L67.5527 15.068L68.1103 14.6744L70.9043 8.47574H76.4617L75.3138 11.1119C78.5582 7.35726 84.9875 6.93736 88.6113 10.3775C89.0578 10.8031 89.4123 11.7634 90.0677 11.8651V8.47385ZM81.5821 12.0929C79.3036 12.5561 78.3608 15.4427 79.7175 17.2296C81.0743 19.0165 84.61 18.6607 85.3209 16.5179C86.1584 13.9985 84.334 11.5318 81.5821 12.0929Z" fill="black"/>
<path d="M4.5992 8.47385V9.79193C7.44495 7.44576 11.3658 7.42504 14.0927 9.97269L15.7139 12.4281V8.7563C17.0094 8.1481 18.9027 8.59436 20.3802 8.5021L20.683 8.78266C20.2691 11.3265 21.2023 9.51325 22.1662 8.88246C23.3141 8.12927 24.5942 7.96546 25.951 8.11233C26.4052 8.16128 26.798 8.43996 27.3058 8.47574C28.6492 8.56988 30.0749 8.40418 31.4279 8.47574V22.0331H26.637V11.8651L25.7766 12.7614C24.3336 11.8858 22.0685 11.69 21.1084 13.3055C20.1483 14.9211 20.9628 19.235 20.706 21.3834C20.6734 21.6583 20.683 21.8674 20.4089 22.0331H16.0014L15.7139 21.7506V18.0788L14.6427 19.7566C12.276 22.8088 8.04668 23.3662 4.97863 20.9937L4.5992 21.1838V28.9981H0V8.47385H4.5992ZM7.04061 12.0967C4.59728 12.5486 3.82692 15.6423 5.36382 17.4198C6.67459 18.9375 10.0991 18.5571 10.7775 16.5197C11.6417 13.9194 9.8442 11.577 7.04061 12.0967Z" fill="black"/>
<path d="M126.67 3.38986C126.97 3.57816 126.946 7.63594 126.67 8.28179C126.856 8.23472 127.08 8.47385 127.149 8.47385H134.143V10.1685C135.709 8.58871 137.068 7.85813 139.398 8.11233C139.852 8.16128 140.245 8.43996 140.753 8.47574C142.096 8.56988 143.522 8.40418 144.875 8.47574V22.033H140.371L140.084 21.7506V11.8651C139.212 13.2829 138.369 12.0703 137.104 12.0458C136.366 12.0326 135.276 12.4262 134.826 13.0043C134.722 13.1379 134.143 14.1472 134.143 14.2169V21.7487C134.023 21.9351 133.879 21.9916 133.664 22.0312C132.422 22.2552 130.577 21.8749 129.251 22.0255C128.778 22.0801 128.461 22.3607 128.097 22.3983C125.878 22.6262 123.726 22.308 122.67 20.2198C121.492 17.8905 122.337 14.9117 122.046 12.3603L121.758 12.0778L120.277 12.027C119.646 11.8255 120.1 9.10653 119.962 8.47385C120.112 8.32698 121.793 8.7563 122.072 8.19329V3.39174H126.672L126.67 3.38986ZM126.986 12.0797C126.465 12.2341 126.861 12.848 126.871 13.266C126.911 15.1847 126.037 19.8808 129.328 17.5798V12.3584C129.18 11.9178 127.386 11.9592 126.988 12.0778L126.986 12.0797Z" fill="black"/>
<path d="M53.0824 3.38986V8.19141C53.803 8.77701 55.0486 8.34958 55.9569 8.47385V12.0515L53.1668 12.2285C53.1993 13.4731 52.3964 18.2765 54.33 18.2539C54.765 18.2483 55.154 17.625 55.4759 18.0788L56.5069 21.6244C53.6995 22.9915 49.9301 22.9538 48.7189 19.6379C48.6327 19.4007 48.2935 18.3086 48.2935 18.173V12.0534L47.1437 12.3358V22.033H42.3529V13.6539C42.3529 13.5334 41.7684 12.5297 41.5768 12.3452C39.8636 10.6826 36.9871 12.4017 36.9871 14.4071V21.5623C36.9871 21.6282 37.3263 21.7713 36.8913 22.033H32.4838L32.1963 21.7506V8.7563L32.4838 8.47385H36.8913L37.0063 9.29106L37.4605 9.59986C39.9191 7.07858 44.0603 7.88449 46.3753 10.1666V8.47197C46.5113 8.33828 48.0329 8.73747 48.2935 8.19141V3.67231L48.581 3.38986H53.0844H53.0824Z" fill="black"/>
<path d="M145.833 28.9981V8.47385H150.336C150.771 8.77889 150.608 9.33437 150.626 9.79193C153.839 6.86769 158.992 7.69243 161.056 11.4979C164.255 17.3916 158.828 24.737 152.212 21.8824C151.812 21.7092 150.808 20.9108 150.718 20.9052C150.246 20.8826 150.622 21.3477 150.622 21.3721V28.7157L150.334 28.9981H145.831H145.833ZM152.874 12.0967C150.451 12.5448 149.687 15.8099 151.314 17.4932C152.394 18.6117 154.648 18.591 155.8 17.6062C158.324 15.4502 156.409 11.4414 152.874 12.0967Z" fill="black"/>
<path d="M110.189 8.47385V10.1685C110.973 9.87289 111.387 9.14984 112.079 8.72994C113.65 7.77151 115.982 7.79222 117.446 8.96531L115.745 12.8065C114.102 12.1513 112.266 11.4301 110.958 13.089C110.785 13.3074 110.189 14.424 110.189 14.5935V22.0312H105.686L105.44 21.7487C105.435 21.6715 105.59 21.6075 105.59 21.5604V8.47385H110.189Z" fill="black"/>
<path d="M142.142 0.0438411C146.084 -0.575653 146.734 5.57409 142.65 5.62682C139.156 5.67389 138.769 0.572953 142.142 0.0438411Z" fill="black"/>
<path d="M28.699 0.0400752C32.6179 -0.515398 33.1372 5.53079 29.2068 5.63058C25.6865 5.71908 25.2649 0.527762 28.699 0.0400752Z" fill="black"/>
</svg>
